NotoSerifDisplay-SemiBoldItalic.ufo
<glyph name="asterisk" format="2">
  <advance width="574"/>
  <unicode hex="002A"/>
  <outline>
    <contour>
      <point x="367" y="360" type="line"/>
      <point x="354" y="545" type="line"/>
      <point x="491" y="395" type="line"/>
      <point x="554" y="484" type="line"/>
      <point x="369" y="561" type="line"/>
      <point x="570" y="561" type="line"/>
      <point x="544" y="668" type="line"/>
      <point x="361" y="581" type="line"/>
      <point x="443" y="746" type="line"/>
      <point x="334" y="767" type="line"/>
      <point x="346" y="584" type="line"/>
      <point x="209" y="735" type="line"/>
      <point x="146" y="644" type="line"/>
      <point x="332" y="567" type="line"/>
      <point x="130" y="565" type="line"/>
      <point x="156" y="459" type="line"/>
      <point x="339" y="548" type="line"/>
      <point x="259" y="381" type="line"/>
    </contour>
  </outline>
</glyph>
<glyph name="period" format="2">
  <advance width="285"/>
  <unicode hex="002E"/>
  <outline>
    <contour>
      <point x="98" y="-8" type="curve" smooth="yes"/>
      <point x="152" y="-8"/>
      <point x="184" y="33"/>
      <point x="184" y="90" type="curve" smooth="yes"/>
      <point x="184" y="136"/>
      <point x="156" y="154"/>
      <point x="119" y="154" type="curve" smooth="yes"/>
      <point x="68" y="154"/>
      <point x="33" y="115"/>
      <point x="33" y="56" type="curve" smooth="yes"/>
      <point x="33" y="10"/>
      <point x="60" y="-8"/>
    </contour>
  </outline>
</glyph>
<glyph name="slash" format="2">
  <advance width="259"/>
  <unicode hex="002F"/>
  <outline>
    <contour>
      <point x="-78" y="-121" type="line"/>
      <point x="-67" y="-121" type="line"/>
      <point x="359" y="760" type="line"/>
      <point x="348" y="760" type="line"/>
    </contour>
  </outline>
</glyph>
<glyph name="one" format="2">
  <advance width="559"/>
  <unicode hex="0031"/>
  <outline>
    <contour>
      <point x="50" y="0" type="line"/>
      <point x="463" y="0" type="line"/>
      <point x="465" y="10" type="line"/>
      <point x="416" y="10" type="line" smooth="yes"/>
      <point x="366" y="10"/>
      <point x="341" y="14"/>
      <point x="341" y="43" type="curve" smooth="yes"/>
      <point x="341" y="51"/>
      <point x="345" y="70"/>
      <point x="347" y="78" type="curve" smooth="yes"/>
      <point x="483" y="718" type="line"/>
      <point x="408" y="718" type="line"/>
      <point x="330" y="658" type="line" smooth="yes"/>
      <point x="265" y="609"/>
      <point x="221" y="588"/>
      <point x="120" y="589" type="curve"/>
      <point x="120" y="542"/>
      <point x="135" y="515"/>
      <point x="169" y="515" type="curve" smooth="yes"/>
      <point x="212" y="515"/>
      <point x="258" y="548"/>
      <point x="320" y="638" type="curve"/>
      <point x="322" y="638" type="line"/>
      <point x="310" y="591"/>
      <point x="291" y="517"/>
      <point x="281" y="470" type="curve" smooth="yes"/>
      <point x="198" y="75" type="line" smooth="yes"/>
      <point x="187" y="22"/>
      <point x="157" y="10"/>
      <point x="111" y="10" type="curve" smooth="yes"/>
      <point x="52" y="10" type="line"/>
    </contour>
  </outline>
</glyph>
<glyph name="three" format="2">
  <advance width="559"/>
  <unicode hex="0033"/>
  <outline>
    <contour>
      <point x="212" y="-10" type="curve" smooth="yes"/>
      <point x="347" y="-10"/>
      <point x="511" y="48"/>
      <point x="511" y="222" type="curve" smooth="yes"/>
      <point x="511" y="323"/>
      <point x="433" y="362"/>
      <point x="283" y="373" type="curve"/>
      <point x="436" y="391"/>
      <point x="562" y="446"/>
      <point x="562" y="581" type="curve" smooth="yes"/>
      <point x="562" y="672"/>
      <point x="480" y="724"/>
      <point x="357" y="724" type="curve" smooth="yes"/>
      <point x="221" y="724"/>
      <point x="112" y="660"/>
      <point x="112" y="578" type="curve" smooth="yes"/>
      <point x="112" y="529"/>
      <point x="161" y="514"/>
      <point x="225" y="514" type="curve"/>
      <point x="245" y="660"/>
      <point x="277" y="714"/>
      <point x="349" y="714" type="curve" smooth="yes"/>
      <point x="399" y="714"/>
      <point x="412" y="679"/>
      <point x="412" y="602" type="curve" smooth="yes"/>
      <point x="412" y="452"/>
      <point x="336" y="377"/>
      <point x="225" y="377" type="curve" smooth="yes"/>
      <point x="177" y="377" type="line"/>
      <point x="175" y="367" type="line"/>
      <point x="241" y="367" type="line" smooth="yes"/>
      <point x="319" y="367"/>
      <point x="359" y="321"/>
      <point x="359" y="211" type="curve" smooth="yes"/>
      <point x="359" y="42"/>
      <point x="289" y="0"/>
      <point x="221" y="0" type="curve" smooth="yes"/>
      <point x="144" y="0"/>
      <point x="114" y="51"/>
      <point x="111" y="196" type="curve"/>
      <point x="42" y="196"/>
      <point x="1" y="163"/>
      <point x="1" y="111" type="curve" smooth="yes"/>
      <point x="1" y="55"/>
      <point x="56" y="-10"/>
    </contour>
  </outline>
</glyph>
<glyph name="colon" format="2">
  <advance width="359"/>
  <unicode hex="003A"/>
  <outline>
    <contour>
      <point x="121" y="-8" type="curve" smooth="yes"/>
      <point x="175" y="-8"/>
      <point x="207" y="33"/>
      <point x="207" y="90" type="curve" smooth="yes"/>
      <point x="207" y="136"/>
      <point x="179" y="154"/>
      <point x="142" y="154" type="curve" smooth="yes"/>
      <point x="91" y="154"/>
      <point x="56" y="115"/>
      <point x="56" y="56" type="curve" smooth="yes"/>
      <point x="56" y="10"/>
      <point x="83" y="-8"/>
    </contour>
    <contour>
      <point x="203" y="379" type="curve" smooth="yes"/>
      <point x="257" y="379"/>
      <point x="289" y="420"/>
      <point x="289" y="477" type="curve" smooth="yes"/>
      <point x="289" y="523"/>
      <point x="261" y="541"/>
      <point x="224" y="541" type="curve" smooth="yes"/>
      <point x="173" y="541"/>
      <point x="138" y="502"/>
      <point x="138" y="443" type="curve" smooth="yes"/>
      <point x="138" y="397"/>
      <point x="165" y="379"/>
    </contour>
  </outline>
</glyph>
<glyph name="I" format="2">
  <advance width="394"/>
  <unicode hex="0049"/>
  <anchor x="140" y="0" name="bottom"/>
  <anchor x="292" y="714" name="top"/>
  <anchor x="472" y="714" name="topright"/>
  <outline>
    <contour>
      <point x="-28" y="0" type="line"/>
      <point x="317" y="0" type="line"/>
      <point x="319" y="10" type="line"/>
      <point x="306" y="10" type="line" smooth="yes"/>
      <point x="264" y="10"/>
      <point x="233" y="15"/>
      <point x="233" y="44" type="curve" smooth="yes"/>
      <point x="233" y="54"/>
      <point x="237" y="68"/>
      <point x="241" y="86" type="curve" smooth="yes"/>
      <point x="356" y="636" type="line" smooth="yes"/>
      <point x="369" y="696"/>
      <point x="408" y="704"/>
      <point x="452" y="704" type="curve" smooth="yes"/>
      <point x="465" y="704" type="line"/>
      <point x="468" y="714" type="line"/>
      <point x="122" y="714" type="line"/>
      <point x="120" y="704" type="line"/>
      <point x="133" y="704" type="line" smooth="yes"/>
      <point x="175" y="704"/>
      <point x="205" y="699"/>
      <point x="205" y="670" type="curve" smooth="yes"/>
      <point x="205" y="665"/>
      <point x="204" y="653"/>
      <point x="200" y="636" type="curve" smooth="yes"/>
      <point x="80" y="70" type="line" smooth="yes"/>
      <point x="69" y="18"/>
      <point x="30" y="10"/>
      <point x="-12" y="10" type="curve" smooth="yes"/>
      <point x="-25" y="10" type="line"/>
    </contour>
  </outline>
</glyph>
<glyph name="K" format="2">
  <advance width="737"/>
  <unicode hex="004B"/>
  <anchor x="310" y="0" name="bottom"/>
  <anchor x="462" y="714" name="top"/>
  <anchor x="812" y="714" name="topright"/>
  <outline>
    <contour>
      <point x="-28" y="0" type="line"/>
      <point x="317" y="0" type="line"/>
      <point x="319" y="10" type="line"/>
      <point x="306" y="10" type="line" smooth="yes"/>
      <point x="264" y="10"/>
      <point x="233" y="14"/>
      <point x="233" y="44" type="curve" smooth="yes"/>
      <point x="233" y="48"/>
      <point x="235" y="60"/>
      <point x="238" y="71" type="curve" smooth="yes"/>
      <point x="286" y="302" type="line"/>
      <point x="391" y="393" type="line"/>
      <point x="340" y="356" type="line"/>
      <point x="417" y="139" type="line" smooth="yes"/>
      <point x="452" y="40"/>
      <point x="491" y="0"/>
      <point x="625" y="0" type="curve" smooth="yes"/>
      <point x="677" y="0" type="line"/>
      <point x="680" y="10" type="line"/>
      <point x="677" y="10" type="line" smooth="yes"/>
      <point x="650" y="10"/>
      <point x="634" y="27"/>
      <point x="597" y="121" type="curve" smooth="yes"/>
      <point x="461" y="464" type="line"/>
      <point x="411" y="411" type="line"/>
      <point x="656" y="631" type="line" smooth="yes"/>
      <point x="715" y="685"/>
      <point x="750" y="704"/>
      <point x="801" y="704" type="curve"/>
      <point x="804" y="714" type="line"/>
      <point x="553" y="714" type="line"/>
      <point x="551" y="704" type="line"/>
      <point x="623" y="704"/>
      <point x="638" y="690"/>
      <point x="638" y="665" type="curve" smooth="yes"/>
      <point x="638" y="631"/>
      <point x="605" y="600"/>
      <point x="537" y="540" type="curve" smooth="yes"/>
      <point x="289" y="317" type="line"/>
      <point x="357" y="643" type="line" smooth="yes"/>
      <point x="369" y="696"/>
      <point x="405" y="704"/>
      <point x="447" y="704" type="curve" smooth="yes"/>
      <point x="460" y="704" type="line"/>
      <point x="462" y="714" type="line"/>
      <point x="122" y="714" type="line"/>
      <point x="120" y="704" type="line"/>
      <point x="133" y="704" type="line" smooth="yes"/>
      <point x="183" y="704"/>
      <point x="204" y="697"/>
      <point x="203" y="667" type="curve" smooth="yes"/>
      <point x="203" y="659"/>
      <point x="201" y="647"/>
      <point x="199" y="636" type="curve" smooth="yes"/>
      <point x="80" y="70" type="line" smooth="yes"/>
      <point x="69" y="18"/>
      <point x="29" y="10"/>
      <point x="-13" y="10" type="curve" smooth="yes"/>
      <point x="-26" y="10" type="line"/>
    </contour>
  </outline>
</glyph>
<glyph name="L" format="2">
  <advance width="648"/>
  <unicode hex="004C"/>
  <anchor x="266" y="0" name="bottom"/>
  <anchor x="361" y="357" name="center"/>
  <anchor x="301" y="714" name="top"/>
  <anchor x="612" y="714" name="topright"/>
  <outline>
    <contour>
      <point x="-28" y="0" type="line"/>
      <point x="558" y="0" type="line"/>
      <point x="613" y="223" type="line"/>
      <point x="603" y="223" type="line"/>
      <point x="580" y="151" type="line" smooth="yes"/>
      <point x="555" y="75"/>
      <point x="506" y="10"/>
      <point x="409" y="10" type="curve" smooth="yes"/>
      <point x="224" y="10" type="line"/>
      <point x="358" y="648" type="line" smooth="yes"/>
      <point x="369" y="696"/>
      <point x="409" y="704"/>
      <point x="453" y="704" type="curve" smooth="yes"/>
      <point x="466" y="704" type="line"/>
      <point x="467" y="714" type="line"/>
      <point x="122" y="714" type="line"/>
      <point x="120" y="704" type="line"/>
      <point x="133" y="704" type="line" smooth="yes"/>
      <point x="175" y="704"/>
      <point x="205" y="699"/>
      <point x="205" y="670" type="curve" smooth="yes"/>
      <point x="205" y="662"/>
      <point x="203" y="649"/>
      <point x="199" y="636" type="curve" smooth="yes"/>
      <point x="80" y="70" type="line" smooth="yes"/>
      <point x="69" y="18"/>
      <point x="30" y="10"/>
      <point x="-6" y="10" type="curve" smooth="yes"/>
      <point x="-25" y="10" type="line"/>
    </contour>
  </outline>
</glyph>
<glyph name="Z" format="2">
  <advance width="666"/>
  <unicode hex="005A"/>
  <anchor x="265" y="0" name="bottom"/>
  <anchor x="402" y="714" name="top"/>
  <anchor x="729" y="714" name="topright"/>
  <outline>
    <contour>
      <point x="-14" y="0" type="line"/>
      <point x="562" y="0" type="line"/>
      <point x="610" y="206" type="line"/>
      <point x="600" y="206" type="line"/>
      <point x="583" y="154" type="line" smooth="yes"/>
      <point x="555" y="60"/>
      <point x="500" y="10"/>
      <point x="390" y="10" type="curve" smooth="yes"/>
      <point x="171" y="10" type="line"/>
      <point x="692" y="704" type="line"/>
      <point x="693" y="714" type="line"/>
      <point x="149" y="714" type="line"/>
      <point x="100" y="508" type="line"/>
      <point x="110" y="508" type="line"/>
      <point x="128" y="567" type="line" smooth="yes"/>
      <point x="156" y="662"/>
      <point x="226" y="704"/>
      <point x="310" y="704" type="curve" smooth="yes"/>
      <point x="503" y="704" type="line"/>
      <point x="-12" y="10" type="line"/>
    </contour>
  </outline>
</glyph>
<glyph name="b" format="2">
  <advance width="629"/>
  <unicode hex="0062"/>
  <anchor x="269" y="0" name="bottom"/>
  <anchor x="431" y="760" name="top"/>
  <anchor x="722" y="760" name="topright"/>
  <outline>
    <contour>
      <point x="288" y="-10" type="curve" smooth="yes"/>
      <point x="553" y="-10"/>
      <point x="598" y="260"/>
      <point x="598" y="358" type="curve" smooth="yes"/>
      <point x="598" y="498"/>
      <point x="529" y="546"/>
      <point x="456" y="546" type="curve" smooth="yes"/>
      <point x="367" y="546"/>
      <point x="308" y="488"/>
      <point x="275" y="407" type="curve"/>
      <point x="271" y="407" type="line"/>
      <point x="287" y="471"/>
      <point x="303" y="532"/>
      <point x="311" y="570" type="curve" smooth="yes"/>
      <point x="352" y="760" type="line"/>
      <point x="110" y="760" type="line"/>
      <point x="108" y="750" type="line"/>
      <point x="131" y="750" type="line" smooth="yes"/>
      <point x="164" y="750"/>
      <point x="184" y="741"/>
      <point x="184" y="711" type="curve" smooth="yes"/>
      <point x="184" y="697"/>
      <point x="180" y="679"/>
      <point x="174" y="652" type="curve" smooth="yes"/>
      <point x="35" y="-3" type="line"/>
      <point x="91" y="-3" type="line"/>
      <point x="186" y="26" type="line"/>
      <point x="204" y="7"/>
      <point x="229" y="-10"/>
    </contour>
    <contour>
      <point x="253" y="3" type="curve" smooth="yes"/>
      <point x="228" y="3"/>
      <point x="206" y="16"/>
      <point x="195" y="31" type="curve"/>
      <point x="261" y="336" type="line" smooth="yes"/>
      <point x="277" y="408"/>
      <point x="328" y="513"/>
      <point x="391" y="513" type="curve" smooth="yes"/>
      <point x="424" y="513"/>
      <point x="445" y="480"/>
      <point x="445" y="394" type="curve" smooth="yes"/>
      <point x="445" y="259"/>
      <point x="376" y="3"/>
    </contour>
  </outline>
</glyph>
<glyph name="o" format="2">
  <advance width="603"/>
  <unicode hex="006F"/>
  <anchor x="245" y="0" name="bottom"/>
  <anchor x="359" y="268" name="center"/>
  <anchor x="359" y="536" name="top"/>
  <anchor x="648" y="536" name="topright"/>
  <outline>
    <contour>
      <point x="249" y="-10" type="curve" smooth="yes"/>
      <point x="469" y="-10"/>
      <point x="570" y="192"/>
      <point x="570" y="336" type="curve" smooth="yes"/>
      <point x="570" y="485"/>
      <point x="476" y="546"/>
      <point x="361" y="546" type="curve" smooth="yes"/>
      <point x="137" y="546"/>
      <point x="33" y="350"/>
      <point x="33" y="200" type="curve" smooth="yes"/>
      <point x="33" y="59"/>
      <point x="120" y="-10"/>
    </contour>
    <contour>
      <point x="251" y="0" type="curve" smooth="yes"/>
      <point x="205" y="0"/>
      <point x="186" y="39"/>
      <point x="186" y="138" type="curve" smooth="yes"/>
      <point x="186" y="288"/>
      <point x="242" y="536"/>
      <point x="357" y="536" type="curve" smooth="yes"/>
      <point x="404" y="536"/>
      <point x="418" y="509"/>
      <point x="418" y="400" type="curve" smooth="yes"/>
      <point x="418" y="241"/>
      <point x="367" y="0"/>
    </contour>
  </outline>
</glyph>
<glyph name="v" format="2">
  <advance width="533"/>
  <unicode hex="0076"/>
  <anchor x="230" y="0" name="bottom"/>
  <anchor x="344" y="536" name="top"/>
  <anchor x="617" y="536" name="topright"/>
  <outline>
    <contour>
      <point x="160" y="-9" type="line"/>
      <point x="260" y="0" type="line"/>
      <point x="373" y="116"/>
      <point x="516" y="292"/>
      <point x="516" y="452" type="curve" smooth="yes"/>
      <point x="516" y="516"/>
      <point x="486" y="544"/>
      <point x="442" y="544" type="curve" smooth="yes"/>
      <point x="388" y="544"/>
      <point x="368" y="507"/>
      <point x="368" y="459" type="curve"/>
      <point x="439" y="459"/>
      <point x="466" y="432"/>
      <point x="466" y="368" type="curve" smooth="yes"/>
      <point x="466" y="267"/>
      <point x="397" y="164"/>
      <point x="290" y="48" type="curve"/>
      <point x="287" y="48" type="line"/>
      <point x="283" y="88"/>
      <point x="277" y="138"/>
      <point x="268" y="197" type="curve" smooth="yes"/>
      <point x="218" y="536" type="line"/>
      <point x="22" y="536" type="line"/>
      <point x="20" y="526" type="line"/>
      <point x="30" y="526" type="line" smooth="yes"/>
      <point x="62" y="526"/>
      <point x="75" y="516"/>
      <point x="82" y="474" type="curve" smooth="yes"/>
    </contour>
  </outline>
</glyph>
<glyph name="z" format="2">
  <advance width="558"/>
  <unicode hex="007A"/>
  <anchor x="225" y="0" name="bottom"/>
  <anchor x="304" y="536" name="top"/>
  <anchor x="598" y="536" name="topright"/>
  <outline>
    <contour>
      <point x="2" y="0" type="line"/>
      <point x="462" y="0" type="line"/>
      <point x="505" y="181" type="line"/>
      <point x="495" y="181" type="line"/>
      <point x="475" y="123" type="line" smooth="yes"/>
      <point x="449" y="47"/>
      <point x="417" y="10"/>
      <point x="324" y="10" type="curve" smooth="yes"/>
      <point x="162" y="10" type="line"/>
      <point x="533" y="526" type="line"/>
      <point x="535" y="536" type="line"/>
      <point x="117" y="536" type="line"/>
      <point x="73" y="374" type="line"/>
      <point x="83" y="374" type="line"/>
      <point x="95" y="405" type="line" smooth="yes"/>
      <point x="125" y="495"/>
      <point x="167" y="526"/>
      <point x="258" y="526" type="curve" smooth="yes"/>
      <point x="376" y="526" type="line"/>
      <point x="4" y="10" type="line"/>
    </contour>
  </outline>
</glyph>
<glyph name="braceleft" format="2">
  <advance width="442"/>
  <unicode hex="007B"/>
  <outline>
    <contour>
      <point x="238" y="-125" type="curve" smooth="yes"/>
      <point x="333" y="-125" type="line"/>
      <point x="336" y="-115" type="line"/>
      <point x="297" y="-115" type="line" smooth="yes"/>
      <point x="257" y="-115"/>
      <point x="242" y="-90"/>
      <point x="242" y="-56" type="curve" smooth="yes"/>
      <point x="242" y="-36"/>
      <point x="245" y="-21"/>
      <point x="249" y="-4" type="curve" smooth="yes"/>
      <point x="290" y="182" type="line" smooth="yes"/>
      <point x="292" y="192"/>
      <point x="293" y="201"/>
      <point x="293" y="210" type="curve" smooth="yes"/>
      <point x="293" y="255"/>
      <point x="261" y="307"/>
      <point x="143" y="315" type="curve"/>
      <point x="144" y="319" type="line"/>
      <point x="279" y="329"/>
      <point x="329" y="379"/>
      <point x="346" y="452" type="curve" smooth="yes"/>
      <point x="391" y="659" type="line" smooth="yes"/>
      <point x="404" y="721"/>
      <point x="423" y="750"/>
      <point x="482" y="750" type="curve" smooth="yes"/>
      <point x="521" y="750" type="line"/>
      <point x="522" y="760" type="line"/>
      <point x="426" y="760" type="line" smooth="yes"/>
      <point x="298" y="760"/>
      <point x="245" y="714"/>
      <point x="224" y="614" type="curve" smooth="yes"/>
      <point x="185" y="424" type="line" smooth="yes"/>
      <point x="169" y="344"/>
      <point x="120" y="326"/>
      <point x="47" y="325" type="curve"/>
      <point x="45" y="315" type="line"/>
      <point x="101" y="313"/>
      <point x="141" y="299"/>
      <point x="143" y="243" type="curve" smooth="yes"/>
      <point x="143" y="233"/>
      <point x="142" y="223"/>
      <point x="138" y="207" type="curve" smooth="yes"/>
      <point x="105" y="54" type="line" smooth="yes"/>
      <point x="95" y="10"/>
      <point x="95" y="-4"/>
      <point x="95" y="-16" type="curve" smooth="yes"/>
      <point x="95" y="-84"/>
      <point x="143" y="-125"/>
    </contour>
  </outline>
</glyph>
<glyph name="germandbls" format="2">
  <advance width="695"/>
  <unicode hex="00DF"/>
  <anchor x="431" y="-10" name="bottom"/>
  <anchor x="455" y="771" name="top"/>
  <outline>
    <contour>
      <point x="-83" y="-240" type="curve" smooth="yes"/>
      <point x="19" y="-240"/>
      <point x="146" y="-192"/>
      <point x="186" y="-8" type="curve" smooth="yes"/>
      <point x="311" y="574" type="line" smooth="yes"/>
      <point x="340" y="715"/>
      <point x="371" y="761"/>
      <point x="441" y="761" type="curve" smooth="yes"/>
      <point x="501" y="761"/>
      <point x="518" y="715"/>
      <point x="518" y="644" type="curve" smooth="yes"/>
      <point x="518" y="605"/>
      <point x="513" y="569"/>
      <point x="507" y="539" type="curve"/>
      <point x="416" y="535"/>
      <point x="331" y="496"/>
      <point x="331" y="391" type="curve" smooth="yes"/>
      <point x="331" y="318"/>
      <point x="372" y="282"/>
      <point x="432" y="241" type="curve" smooth="yes"/>
      <point x="487" y="204"/>
      <point x="521" y="174"/>
      <point x="521" y="95" type="curve" smooth="yes"/>
      <point x="521" y="35"/>
      <point x="491" y="0"/>
      <point x="444" y="0" type="curve" smooth="yes"/>
      <point x="377" y="0"/>
      <point x="360" y="55"/>
      <point x="360" y="181" type="curve"/>
      <point x="300" y="181"/>
      <point x="260" y="152"/>
      <point x="260" y="99" type="curve" smooth="yes"/>
      <point x="260" y="30"/>
      <point x="326" y="-10"/>
      <point x="427" y="-10" type="curve" smooth="yes"/>
      <point x="572" y="-10"/>
      <point x="648" y="65"/>
      <point x="648" y="170" type="curve" smooth="yes"/>
      <point x="648" y="241"/>
      <point x="609" y="277"/>
      <point x="548" y="318" type="curve" smooth="yes"/>
      <point x="488" y="359"/>
      <point x="459" y="385"/>
      <point x="459" y="433" type="curve" smooth="yes"/>
      <point x="459" y="506"/>
      <point x="500" y="537"/>
      <point x="584" y="537" type="curve" smooth="yes"/>
      <point x="652" y="537" type="line"/>
      <point x="656" y="555"/>
      <point x="658" y="575"/>
      <point x="658" y="605" type="curve" smooth="yes"/>
      <point x="658" y="706"/>
      <point x="592" y="771"/>
      <point x="440" y="771" type="curve" smooth="yes"/>
      <point x="284" y="771"/>
      <point x="193" y="709"/>
      <point x="158" y="568" type="curve" smooth="yes"/>
      <point x="150" y="536" type="line"/>
      <point x="69" y="536" type="line"/>
      <point x="67" y="526" type="line"/>
      <point x="148" y="526" type="line"/>
      <point x="28" y="-39" type="line" smooth="yes"/>
      <point x="-1" y="-183"/>
      <point x="-37" y="-227"/>
      <point x="-100" y="-227" type="curve" smooth="yes"/>
      <point x="-119" y="-227"/>
      <point x="-133" y="-224"/>
      <point x="-144" y="-220" type="curve"/>
      <point x="-147" y="-230" type="line"/>
      <point x="-134" y="-235"/>
      <point x="-109" y="-240"/>
    </contour>
  </outline>
</glyph>
<glyph name="oslash" format="2">
  <advance width="618"/>
  <unicode hex="00F8"/>
  <anchor x="252" y="0" name="bottom"/>
  <anchor x="366" y="536" name="top"/>
  <anchor x="359" y="268" name="center"/>
  <anchor x="648" y="536" name="topright"/>
  <outline>
    <contour>
      <point x="40" y="-50" type="line"/>
      <point x="51" y="-50" type="line"/>
      <point x="575" y="586" type="line"/>
      <point x="565" y="586" type="line"/>
    </contour>
    <component base="o"/>
  </outline>
</glyph>
<glyph name="kgreenlandic" format="2">
  <advance width="611"/>
  <unicode hex="0138"/>
  <anchor x="273" y="0" name="bottom"/>
  <anchor x="355" y="536" name="top"/>
  <outline>
    <contour>
      <point x="515" y="-6" type="curve" smooth="yes"/>
      <point x="562" y="-6" type="line"/>
      <point x="565" y="4" type="line"/>
      <point x="536" y="4"/>
      <point x="522" y="18"/>
      <point x="497" y="74" type="curve" smooth="yes"/>
      <point x="369" y="364" type="line"/>
      <point x="317" y="313" type="line"/>
      <point x="458" y="436" type="line" smooth="yes"/>
      <point x="526" y="494"/>
      <point x="584" y="526"/>
      <point x="633" y="526" type="curve"/>
      <point x="635" y="536" type="line"/>
      <point x="383" y="536" type="line"/>
      <point x="381" y="526" type="line"/>
      <point x="445" y="526"/>
      <point x="476" y="518"/>
      <point x="476" y="492" type="curve" smooth="yes"/>
      <point x="476" y="467"/>
      <point x="453" y="445"/>
      <point x="409" y="407" type="curve" smooth="yes"/>
      <point x="225" y="246" type="line"/>
      <point x="232" y="273"/>
      <point x="243" y="323"/>
      <point x="253" y="369" type="curve" smooth="yes"/>
      <point x="289" y="536" type="line"/>
      <point x="48" y="536" type="line"/>
      <point x="46" y="526" type="line"/>
      <point x="68" y="526" type="line" smooth="yes"/>
      <point x="102" y="526"/>
      <point x="120" y="520"/>
      <point x="120" y="488" type="curve" smooth="yes"/>
      <point x="120" y="478"/>
      <point x="117" y="461"/>
      <point x="113" y="441" type="curve" smooth="yes"/>
      <point x="21" y="0" type="line"/>
      <point x="171" y="0" type="line"/>
      <point x="222" y="231" type="line"/>
      <point x="303" y="302" type="line"/>
      <point x="256" y="267" type="line"/>
      <point x="320" y="105" type="line" smooth="yes"/>
      <point x="355" y="16"/>
      <point x="400" y="-6"/>
    </contour>
  </outline>
</glyph>
<glyph name="Lslash" format="2">
  <advance width="654"/>
  <unicode hex="0141"/>
  <anchor x="271" y="0" name="bottom"/>
  <anchor x="423" y="714" name="top"/>
  <anchor x="361" y="357" name="center"/>
  <anchor x="612" y="714" name="topright"/>
  <outline>
    <contour>
      <point x="35" y="267" type="line"/>
      <point x="469" y="491" type="line"/>
      <point x="471" y="503" type="line"/>
      <point x="37" y="279" type="line"/>
    </contour>
    <component base="L"/>
  </outline>
</glyph>
<glyph name="lslash" format="2">
  <advance width="354"/>
  <unicode hex="0142"/>
  <anchor x="120" y="0" name="bottom"/>
  <anchor x="282" y="760" name="top"/>
  <anchor x="248" y="268" name="center"/>
  <anchor x="452" y="760" name="topright"/>
  <outline>
    <contour>
      <point x="6" y="299" type="line"/>
      <point x="358" y="473" type="line"/>
      <point x="360" y="485" type="line"/>
      <point x="8" y="311" type="line"/>
    </contour>
    <component base="l"/>
  </outline>
</glyph>
<glyph name="tbar" format="2">
  <advance width="417"/>
  <unicode hex="0167"/>
  <anchor x="152" y="0" name="bottom"/>
  <anchor x="292" y="659" name="top"/>
  <anchor x="284" y="268" name="center"/>
  <anchor x="454" y="701" name="topright"/>
  <outline>
    <contour>
      <point x="22" y="304" type="line"/>
      <point x="355" y="304" type="line"/>
      <point x="357" y="314" type="line"/>
      <point x="24" y="314" type="line"/>
    </contour>
    <component base="t"/>
  </outline>
</glyph>
<glyph name="florin" format="2">
  <advance width="499"/>
  <unicode hex="0192"/>
  <anchor x="104" y="-15" name="bottom"/>
  <anchor x="503" y="770" name="top"/>
  <anchor x="704" y="770" name="topright"/>
  <outline>
    <contour>
      <point x="98" y="-15" type="curve" smooth="yes"/>
      <point x="233" y="-15"/>
      <point x="309" y="52"/>
      <point x="340" y="203" type="curve" smooth="yes"/>
      <point x="408" y="526" type="line"/>
      <point x="535" y="526" type="line"/>
      <point x="537" y="536" type="line"/>
      <point x="411" y="536" type="line"/>
      <point x="431" y="632" type="line" smooth="yes"/>
      <point x="450" y="725"/>
      <point x="467" y="760"/>
      <point x="505" y="760" type="curve" smooth="yes"/>
      <point x="543" y="760"/>
      <point x="546" y="708"/>
      <point x="546" y="613" type="curve"/>
      <point x="621" y="613"/>
      <point x="661" y="639"/>
      <point x="661" y="683" type="curve" smooth="yes"/>
      <point x="661" y="732"/>
      <point x="607" y="770"/>
      <point x="504" y="770" type="curve" smooth="yes"/>
      <point x="369" y="770"/>
      <point x="297" y="703"/>
      <point x="268" y="577" type="curve" smooth="yes"/>
      <point x="259" y="536" type="line"/>
      <point x="165" y="532" type="line"/>
      <point x="164" y="526" type="line"/>
      <point x="256" y="526" type="line"/>
      <point x="171" y="123" type="line" smooth="yes"/>
      <point x="152" y="32"/>
      <point x="135" y="-5"/>
      <point x="97" y="-5" type="curve" smooth="yes"/>
      <point x="59" y="-5"/>
      <point x="56" y="47"/>
      <point x="56" y="142" type="curve"/>
      <point x="-7" y="142"/>
      <point x="-47" y="116"/>
      <point x="-47" y="72" type="curve" smooth="yes"/>
      <point x="-47" y="23"/>
      <point x="7" y="-15"/>
    </contour>
  </outline>
</glyph>
<glyph name="ezhcurl" format="2">
  <advance width="611"/>
  <unicode hex="0293"/>
  <anchor x="172" y="-242" name="bottom"/>
  <anchor x="337" y="536" name="top"/>
  <outline>
    <contour>
      <point x="167" y="-240" type="curve" smooth="yes"/>
      <point x="295" y="-240"/>
      <point x="377" y="-193"/>
      <point x="425" y="-133" type="curve"/>
      <point x="443" y="-161"/>
      <point x="459" y="-195"/>
      <point x="475" y="-232" type="curve"/>
      <point x="486" y="-228" type="line"/>
      <point x="470" y="-190"/>
      <point x="452" y="-154"/>
      <point x="432" y="-123" type="curve"/>
      <point x="469" y="-72"/>
      <point x="484" y="-12"/>
      <point x="484" y="36" type="curve" smooth="yes"/>
      <point x="484" y="183"/>
      <point x="382" y="233"/>
      <point x="230" y="233" type="curve"/>
      <point x="518" y="480" type="line"/>
      <point x="530" y="536" type="line"/>
      <point x="140" y="536" type="line"/>
      <point x="90" y="338" type="line"/>
      <point x="100" y="338" type="line"/>
      <point x="110" y="371" type="line" smooth="yes"/>
      <point x="125" y="419"/>
      <point x="147" y="430"/>
      <point x="196" y="430" type="curve" smooth="yes"/>
      <point x="445" y="430" type="line"/>
      <point x="158" y="185" type="line"/>
      <point x="156" y="170" type="line"/>
      <point x="184" y="170" type="line" smooth="yes"/>
      <point x="274" y="170"/>
      <point x="331" y="129"/>
      <point x="331" y="24" type="curve" smooth="yes"/>
      <point x="331" y="10"/>
      <point x="330" y="-4"/>
      <point x="329" y="-19" type="curve"/>
      <point x="284" y="8"/>
      <point x="229" y="23"/>
      <point x="159" y="23" type="curve" smooth="yes"/>
      <point x="40" y="23"/>
      <point x="-20" y="-32"/>
      <point x="-20" y="-108" type="curve" smooth="yes"/>
      <point x="-20" y="-184"/>
      <point x="38" y="-240"/>
    </contour>
    <contour>
      <point x="137" y="-221" type="curve" smooth="yes"/>
      <point x="50" y="-221"/>
      <point x="-10" y="-178"/>
      <point x="-10" y="-108" type="curve" smooth="yes"/>
      <point x="-10" y="-37"/>
      <point x="47" y="13"/>
      <point x="158" y="13" type="curve" smooth="yes"/>
      <point x="228" y="13"/>
      <point x="283" y="-1"/>
      <point x="328" y="-30" type="curve"/>
      <point x="316" y="-127"/>
      <point x="267" y="-221"/>
    </contour>
  </outline>
</glyph>
<glyph name="hungarumlaut" format="2">
  <advance width="438"/>
  <unicode hex="02DD"/>
  <outline>
    <contour>
      <point x="291" y="606" type="line"/>
      <point x="310" y="606" type="line"/>
      <point x="366" y="643"/>
      <point x="469" y="722"/>
      <point x="502" y="758" type="curve"/>
      <point x="504" y="766" type="line"/>
      <point x="388" y="766" type="line"/>
      <point x="367" y="723"/>
      <point x="325" y="660"/>
      <point x="292" y="613" type="curve"/>
    </contour>
    <contour>
      <point x="112" y="606" type="line"/>
      <point x="131" y="606" type="line"/>
      <point x="188" y="643"/>
      <point x="288" y="720"/>
      <point x="323" y="758" type="curve"/>
      <point x="325" y="766" type="line"/>
      <point x="209" y="766" type="line"/>
      <point x="186" y="719"/>
      <point x="147" y="660"/>
      <point x="113" y="613" type="curve"/>
    </contour>
  </outline>
</glyph>
<glyph name="dblgravecomb" format="2">
  <unicode hex="030F"/>
  <anchor x="56" y="536" name="_top"/>
  <anchor x="89" y="766" name="top"/>
  <outline>
    <contour>
      <point x="30" y="606" type="curve"/>
      <point x="46" y="606" type="line"/>
      <point x="45" y="613" type="line"/>
      <point x="17" y="660"/>
      <point x="-15" y="723"/>
      <point x="-32" y="766" type="curve"/>
      <point x="-148" y="766" type="line"/>
      <point x="-149" y="758" type="line"/>
      <point x="-120" y="722"/>
      <point x="-23" y="643"/>
    </contour>
    <contour>
      <point x="209" y="606" type="curve"/>
      <point x="225" y="606" type="line"/>
      <point x="224" y="613" type="line"/>
      <point x="195" y="660"/>
      <point x="165" y="719"/>
      <point x="147" y="766" type="curve"/>
      <point x="31" y="766" type="line"/>
      <point x="30" y="758" type="line"/>
      <point x="61" y="720"/>
      <point x="155" y="643"/>
    </contour>
  </outline>
</glyph>
<glyph name="dblarchinvertedbelowcomb" format="2">
  <unicode hex="032B"/>
  <anchor x="-57" y="0" name="_bottom"/>
  <anchor x="-81" y="-183" name="bottom"/>
  <outline>
    <contour>
      <point x="-160" y="-183" type="curve" smooth="yes"/>
      <point x="-119" y="-183"/>
      <point x="-95" y="-166"/>
      <point x="-82" y="-131" type="curve"/>
      <point x="-77" y="-163"/>
      <point x="-54" y="-183"/>
      <point x="-13" y="-183" type="curve" smooth="yes"/>
      <point x="59" y="-183"/>
      <point x="75" y="-137"/>
      <point x="86" y="-65" type="curve"/>
      <point x="76" y="-65" type="line"/>
      <point x="67" y="-108"/>
      <point x="51" y="-135"/>
      <point x="-6" y="-135" type="curve" smooth="yes"/>
      <point x="-60" y="-135"/>
      <point x="-69" y="-117"/>
      <point x="-69" y="-91" type="curve" smooth="yes"/>
      <point x="-69" y="-82"/>
      <point x="-67" y="-73"/>
      <point x="-66" y="-65" type="curve"/>
      <point x="-76" y="-65" type="line"/>
      <point x="-86" y="-114"/>
      <point x="-103" y="-135"/>
      <point x="-156" y="-135" type="curve" smooth="yes"/>
      <point x="-205" y="-135"/>
      <point x="-214" y="-115"/>
      <point x="-214" y="-94" type="curve" smooth="yes"/>
      <point x="-214" y="-84"/>
      <point x="-213" y="-76"/>
      <point x="-211" y="-65" type="curve"/>
      <point x="-221" y="-65" type="line"/>
      <point x="-225" y="-85"/>
      <point x="-227" y="-103"/>
      <point x="-227" y="-116" type="curve" smooth="yes"/>
      <point x="-227" y="-158"/>
      <point x="-208" y="-183"/>
    </contour>
  </outline>
</glyph>
<glyph name="lowlinecomb" format="2">
  <unicode hex="0332"/>
  <anchor x="-57" y="0" name="_bottom"/>
  <anchor x="-83" y="-175" name="bottom"/>
  <outline>
    <contour>
      <point x="-298" y="-145" type="line"/>
      <point x="121" y="-145" type="line"/>
      <point x="126" y="-125" type="line"/>
      <point x="-293" y="-125" type="line"/>
    </contour>
  </outline>
</glyph>
<glyph name="dbllowlinecomb" format="2">
  <unicode hex="0333"/>
  <anchor x="-58" y="0" name="_bottom"/>
  <anchor x="-114" y="-266" name="bottom"/>
  <outline>
    <contour>
      <point x="-289" y="-104" type="line"/>
      <point x="130" y="-104" type="line"/>
      <point x="134" y="-84" type="line"/>
      <point x="-285" y="-84" type="line"/>
    </contour>
    <contour>
      <point x="-312" y="-215" type="line"/>
      <point x="107" y="-215" type="line"/>
      <point x="111" y="-195" type="line"/>
      <point x="-308" y="-195" type="line"/>
    </contour>
  </outline>
</glyph>
<glyph name="seagullbelowcomb" format="2">
  <unicode hex="033C"/>
  <anchor x="-58" y="0" name="_bottom"/>
  <anchor x="-95" y="-183" name="bottom"/>
  <outline>
    <contour>
      <point x="-249" y="-183" type="curve"/>
      <point x="-239" y="-183" type="line"/>
      <point x="-230" y="-140"/>
      <point x="-214" y="-113"/>
      <point x="-157" y="-113" type="curve" smooth="yes"/>
      <point x="-103" y="-113"/>
      <point x="-94" y="-131"/>
      <point x="-94" y="-157" type="curve" smooth="yes"/>
      <point x="-94" y="-166"/>
      <point x="-96" y="-175"/>
      <point x="-97" y="-183" type="curve"/>
      <point x="-87" y="-183" type="line"/>
      <point x="-77" y="-134"/>
      <point x="-60" y="-113"/>
      <point x="-7" y="-113" type="curve" smooth="yes"/>
      <point x="42" y="-113"/>
      <point x="51" y="-133"/>
      <point x="51" y="-154" type="curve" smooth="yes"/>
      <point x="51" y="-164"/>
      <point x="50" y="-172"/>
      <point x="48" y="-183" type="curve"/>
      <point x="58" y="-183" type="line"/>
      <point x="62" y="-163"/>
      <point x="64" y="-145"/>
      <point x="64" y="-132" type="curve" smooth="yes"/>
      <point x="64" y="-90"/>
      <point x="45" y="-65"/>
      <point x="-3" y="-65" type="curve" smooth="yes"/>
      <point x="-44" y="-65"/>
      <point x="-68" y="-82"/>
      <point x="-81" y="-117" type="curve"/>
      <point x="-86" y="-85"/>
      <point x="-109" y="-65"/>
      <point x="-150" y="-65" type="curve" smooth="yes"/>
      <point x="-222" y="-65"/>
      <point x="-238" y="-111"/>
    </contour>
  </outline>
</glyph>
<glyph name="nottildeabovecomb" format="2">
  <unicode hex="034A"/>
  <anchor x="56" y="536" name="_top"/>
  <anchor x="112" y="800" name="top"/>
  <outline>
    <contour>
      <point x="18" y="581" type="line"/>
      <point x="60" y="639" type="line"/>
      <point x="86" y="622"/>
      <point x="111" y="606"/>
      <point x="145" y="606" type="curve" smooth="yes"/>
      <point x="213" y="606"/>
      <point x="279" y="671"/>
      <point x="301" y="754" type="curve"/>
      <point x="291" y="754" type="line"/>
      <point x="279" y="724"/>
      <point x="257" y="691"/>
      <point x="211" y="691" type="curve" smooth="yes"/>
      <point x="177" y="691"/>
      <point x="151" y="709"/>
      <point x="124" y="726" type="curve"/>
      <point x="166" y="784" type="line"/>
      <point x="158" y="789" type="line"/>
      <point x="116" y="732" type="line"/>
      <point x="90" y="748"/>
      <point x="65" y="764"/>
      <point x="31" y="764" type="curve" smooth="yes"/>
      <point x="-38" y="764"/>
      <point x="-103" y="697"/>
      <point x="-125" y="616" type="curve"/>
      <point x="-115" y="616" type="line"/>
      <point x="-104" y="645"/>
      <point x="-83" y="679"/>
      <point x="-34" y="679" type="curve" smooth="yes"/>
      <point x="0" y="679"/>
      <point x="26" y="662"/>
      <point x="52" y="644" type="curve"/>
      <point x="10" y="586" type="line"/>
    </contour>
  </outline>
</glyph>
<glyph name="pamphyliandigamma" format="2">
  <advance width="671"/>
  <unicode hex="0377"/>
  <anchor x="274" y="0" name="bottom"/>
  <anchor x="388" y="536" name="top"/>
  <outline>
    <contour>
      <point x="533" y="-12" type="curve" smooth="yes"/>
      <point x="601" y="-12"/>
      <point x="631" y="36"/>
      <point x="634" y="61" type="curve"/>
      <point x="563" y="62"/>
      <point x="544" y="93"/>
      <point x="544" y="174" type="curve" smooth="yes"/>
      <point x="544" y="292"/>
      <point x="591" y="452"/>
      <point x="632" y="536" type="curve"/>
      <point x="573" y="536" type="line"/>
      <point x="202" y="97" type="line"/>
      <point x="300" y="536" type="line"/>
      <point x="65" y="536" type="line"/>
      <point x="63" y="526" type="line"/>
      <point x="75" y="526" type="line" smooth="yes"/>
      <point x="99" y="526"/>
      <point x="133" y="521"/>
      <point x="133" y="483" type="curve" smooth="yes"/>
      <point x="133" y="464"/>
      <point x="129" y="443"/>
      <point x="124" y="422" type="curve" smooth="yes"/>
      <point x="34" y="0" type="line"/>
      <point x="138" y="0" type="line"/>
      <point x="479" y="406" type="line"/>
      <point x="436" y="330"/>
      <point x="395" y="225"/>
      <point x="395" y="134" type="curve" smooth="yes"/>
      <point x="395" y="46"/>
      <point x="436" y="-12"/>
    </contour>
  </outline>
</glyph>
<glyph name="tonos" format="2">
  <advance width="577"/>
  <unicode hex="0384"/>
  <anchor x="268" y="536" name="_top"/>
  <outline>
    <contour>
      <point x="261" y="606" type="line"/>
      <point x="275" y="606" type="line"/>
      <point x="333" y="658"/>
      <point x="403" y="739"/>
      <point x="436" y="784" type="curve"/>
      <point x="439" y="796" type="line"/>
      <point x="323" y="796" type="line"/>
      <point x="308" y="739"/>
      <point x="284" y="671"/>
      <point x="263" y="615" type="curve"/>
    </contour>
  </outline>
</glyph>
<glyph name="eta" format="2">
  <advance width="632"/>
  <unicode hex="03B7"/>
  <anchor x="208" y="-240" name="bottom"/>
  <anchor x="373" y="536" name="top"/>
  <outline>
    <contour>
      <point x="316" y="-240" type="curve"/>
      <point x="467" y="-240" type="line"/>
      <point x="464" y="-230"/>
      <point x="461" y="-219"/>
      <point x="461" y="-201" type="curve" smooth="yes"/>
      <point x="461" y="-168"/>
      <point x="469" y="-117"/>
      <point x="479" y="-69" type="curve" smooth="yes"/>
      <point x="561" y="311" type="line" smooth="yes"/>
      <point x="570" y="355"/>
      <point x="574" y="382"/>
      <point x="574" y="409" type="curve" smooth="yes"/>
      <point x="574" y="494"/>
      <point x="527" y="546"/>
      <point x="436" y="546" type="curve" smooth="yes"/>
      <point x="343" y="546"/>
      <point x="288" y="487"/>
      <point x="259" y="409" type="curve"/>
      <point x="254" y="409" type="line"/>
      <point x="256" y="441"/>
      <point x="252" y="509"/>
      <point x="244" y="536" type="curve"/>
      <point x="109" y="536" type="line"/>
      <point x="110" y="525"/>
      <point x="111" y="511"/>
      <point x="111" y="495" type="curve" smooth="yes"/>
      <point x="111" y="451"/>
      <point x="106" y="391"/>
      <point x="95" y="339" type="curve" smooth="yes"/>
      <point x="23" y="0" type="line"/>
      <point x="176" y="0" type="line"/>
      <point x="243" y="319" type="line" smooth="yes"/>
      <point x="266" y="426"/>
      <point x="310" y="514"/>
      <point x="377" y="514" type="curve" smooth="yes"/>
      <point x="412" y="514"/>
      <point x="427" y="488"/>
      <point x="427" y="437" type="curve" smooth="yes"/>
      <point x="427" y="411"/>
      <point x="422" y="378"/>
      <point x="417" y="355" type="curve" smooth="yes"/>
      <point x="328" y="-57" type="line" smooth="yes"/>
      <point x="317" y="-108"/>
      <point x="310" y="-155"/>
      <point x="310" y="-194" type="curve" smooth="yes"/>
      <point x="310" y="-208"/>
      <point x="312" y="-229"/>
    </contour>
  </outline>
</glyph>
<glyph name="uni04B1" format="2">
  <advance width="560"/>
  <unicode hex="04B1"/>
  <anchor x="186" y="-240" name="bottom"/>
  <anchor x="351" y="536" name="top"/>
  <outline>
    <contour>
      <point x="26" y="-30" type="line"/>
      <point x="431" y="-30" type="line"/>
      <point x="433" y="-20" type="line"/>
      <point x="29" y="-20" type="line"/>
    </contour>
    <component base="uni04AF"/>
  </outline>
</glyph>
<glyph name="uni04B9" format="2">
  <advance width="650"/>
  <unicode hex="04B9"/>
  <anchor x="270" y="0" name="bottom"/>
  <anchor x="384" y="536" name="top"/>
  <outline>
    <contour>
      <point x="266" y="109" type="line"/>
      <point x="276" y="109" type="line"/>
      <point x="330" y="363" type="line"/>
      <point x="320" y="363" type="line"/>
    </contour>
    <component base="afii10089"/>
  </outline>
</glyph>
<glyph name="uni04E9" format="2">
  <advance width="618"/>
  <unicode hex="04E9"/>
  <anchor x="252" y="0" name="bottom"/>
  <anchor x="366" y="536" name="top"/>
  <anchor x="359" y="268" name="center"/>
  <anchor x="648" y="536" name="topright"/>
  <outline>
    <contour>
      <point x="129" y="272" type="line"/>
      <point x="502" y="272" type="line"/>
      <point x="502" y="282" type="line"/>
      <point x="129" y="282" type="line"/>
    </contour>
    <component base="o"/>
  </outline>
</glyph>
<glyph name="uni051F" format="2">
  <advance width="627"/>
  <unicode hex="051F"/>
  <anchor x="257" y="0" name="bottom"/>
  <anchor x="371" y="536" name="top"/>
  <outline>
    <contour>
      <point x="483" y="318" type="line"/>
      <point x="491" y="323" type="line"/>
      <point x="330" y="497" type="line"/>
      <point x="322" y="492" type="line"/>
    </contour>
    <component base="afii10076"/>
  </outline>
</glyph>
<glyph name="uni1D2F" format="2">
  <advance width="456"/>
  <unicode hex="1D2F"/>
  <anchor x="223.35" y="287.0" name="bottom"/>
  <anchor x="322.15000000000003" y="715.4" name="top"/>
  <anchor x="530.8" y="715.4" name="topright"/>
  <outline>
    <contour>
      <point x="72" y="508" type="line"/>
      <point x="487" y="508" type="line"/>
      <point x="488" y="518" type="line"/>
      <point x="74" y="518" type="line"/>
    </contour>
    <component base="B" xScale="0.65" yScale="0.6" xOffset="42" yOffset="287"/>
  </outline>
</glyph>
<glyph name="uni1FEF" format="2">
  <advance width="249"/>
  <unicode hex="1FEF"/>
  <anchor x="231" y="536" name="_top"/>
  <anchor x="270" y="797" name="top"/>
  <outline>
    <contour>
      <point x="286" y="624" type="curve"/>
      <point x="294" y="624" type="line"/>
      <point x="297" y="635" type="line"/>
      <point x="280" y="684"/>
      <point x="265" y="760"/>
      <point x="267" y="797" type="curve"/>
      <point x="162" y="797" type="line"/>
      <point x="161" y="787" type="line"/>
      <point x="178" y="744"/>
      <point x="235" y="667"/>
    </contour>
  </outline>
</glyph>
<glyph name="uni1FFD" format="2">
  <advance width="190"/>
  <unicode hex="1FFD"/>
  <anchor x="169" y="536" name="_top"/>
  <anchor x="209" y="797" name="top"/>
  <outline>
    <contour>
      <point x="129" y="626" type="line"/>
      <point x="138" y="626" type="line"/>
      <point x="201" y="668"/>
      <point x="276" y="744"/>
      <point x="300" y="787" type="curve"/>
      <point x="300" y="797" type="line"/>
      <point x="190" y="797" type="line"/>
      <point x="185" y="760"/>
      <point x="157" y="684"/>
      <point x="128" y="637" type="curve"/>
    </contour>
  </outline>
</glyph>
<glyph name="quotereversed" format="2">
  <advance width="280"/>
  <unicode hex="201B"/>
  <outline>
    <contour>
      <point x="257" y="403" type="curve"/>
      <point x="259" y="413" type="line"/>
      <point x="220" y="433"/>
      <point x="191" y="457"/>
      <point x="191" y="505" type="curve" smooth="yes"/>
      <point x="191" y="608"/>
      <point x="306" y="563"/>
      <point x="306" y="654" type="curve" smooth="yes"/>
      <point x="306" y="694"/>
      <point x="278" y="714"/>
      <point x="240" y="714" type="curve" smooth="yes"/>
      <point x="176" y="714"/>
      <point x="133" y="660"/>
      <point x="133" y="582" type="curve" smooth="yes"/>
      <point x="133" y="489"/>
      <point x="179" y="443"/>
    </contour>
  </outline>
</glyph>
<glyph name="reversedsemicolon" format="2">
  <advance width="319"/>
  <unicode hex="204F"/>
  <outline>
    <contour>
      <point x="194" y="-169" type="curve"/>
      <point x="196" y="-159" type="line"/>
      <point x="157" y="-139"/>
      <point x="128" y="-115"/>
      <point x="128" y="-67" type="curve" smooth="yes"/>
      <point x="128" y="36"/>
      <point x="243" y="-9"/>
      <point x="243" y="82" type="curve" smooth="yes"/>
      <point x="243" y="122"/>
      <point x="215" y="142"/>
      <point x="177" y="142" type="curve" smooth="yes"/>
      <point x="113" y="142"/>
      <point x="70" y="88"/>
      <point x="70" y="10" type="curve" smooth="yes"/>
      <point x="70" y="-83"/>
      <point x="116" y="-129"/>
    </contour>
    <contour>
      <point x="206" y="379" type="curve" smooth="yes"/>
      <point x="260" y="379"/>
      <point x="292" y="420"/>
      <point x="292" y="477" type="curve" smooth="yes"/>
      <point x="292" y="523"/>
      <point x="264" y="541"/>
      <point x="227" y="541" type="curve" smooth="yes"/>
      <point x="176" y="541"/>
      <point x="141" y="502"/>
      <point x="141" y="443" type="curve" smooth="yes"/>
      <point x="141" y="397"/>
      <point x="168" y="379"/>
    </contour>
  </outline>
</glyph>
<glyph name="fivedotpunctuation" format="2">
  <advance width="765"/>
  <unicode hex="2059"/>
  <outline>
    <contour>
      <point x="601" y="381" type="curve" smooth="yes"/>
      <point x="645" y="381"/>
      <point x="683" y="401"/>
      <point x="683" y="461" type="curve" smooth="yes"/>
      <point x="683" y="522"/>
      <point x="645" y="541"/>
      <point x="601" y="541" type="curve" smooth="yes"/>
      <point x="555" y="541"/>
      <point x="519" y="522"/>
      <point x="519" y="461" type="curve" smooth="yes"/>
      <point x="519" y="401"/>
      <point x="555" y="381"/>
    </contour>
    <contour>
      <point x="140" y="-8" type="curve" smooth="yes"/>
      <point x="184" y="-8"/>
      <point x="222" y="12"/>
      <point x="222" y="72" type="curve" smooth="yes"/>
      <point x="222" y="133"/>
      <point x="184" y="152"/>
      <point x="140" y="152" type="curve" smooth="yes"/>
      <point x="94" y="152"/>
      <point x="58" y="133"/>
      <point x="58" y="72" type="curve" smooth="yes"/>
      <point x="58" y="12"/>
      <point x="94" y="-8"/>
    </contour>
    <contour>
      <point x="600" y="-8" type="curve" smooth="yes"/>
      <point x="644" y="-8"/>
      <point x="682" y="12"/>
      <point x="682" y="72" type="curve" smooth="yes"/>
      <point x="682" y="133"/>
      <point x="644" y="152"/>
      <point x="600" y="152" type="curve" smooth="yes"/>
      <point x="554" y="152"/>
      <point x="518" y="133"/>
      <point x="518" y="72" type="curve" smooth="yes"/>
      <point x="518" y="12"/>
      <point x="554" y="-8"/>
    </contour>
    <contour>
      <point x="371" y="187" type="curve" smooth="yes"/>
      <point x="415" y="187"/>
      <point x="453" y="207"/>
      <point x="453" y="267" type="curve" smooth="yes"/>
      <point x="453" y="328"/>
      <point x="415" y="347"/>
      <point x="371" y="347" type="curve" smooth="yes"/>
      <point x="325" y="347"/>
      <point x="289" y="328"/>
      <point x="289" y="267" type="curve" smooth="yes"/>
      <point x="289" y="207"/>
      <point x="325" y="187"/>
    </contour>
    <contour>
      <point x="142" y="381" type="curve" smooth="yes"/>
      <point x="186" y="381"/>
      <point x="224" y="401"/>
      <point x="224" y="461" type="curve" smooth="yes"/>
      <point x="224" y="522"/>
      <point x="186" y="541"/>
      <point x="142" y="541" type="curve" smooth="yes"/>
      <point x="96" y="541"/>
      <point x="60" y="522"/>
      <point x="60" y="461" type="curve" smooth="yes"/>
      <point x="60" y="401"/>
      <point x="96" y="381"/>
    </contour>
  </outline>
</glyph>
<glyph name="twodotpunctuation" format="2">
  <advance width="304"/>
  <unicode hex="205A"/>
  <outline>
    <contour>
      <point x="151" y="-10" type="curve" smooth="yes"/>
      <point x="205" y="-10"/>
      <point x="237" y="31"/>
      <point x="237" y="88" type="curve" smooth="yes"/>
      <point x="237" y="134"/>
      <point x="209" y="152"/>
      <point x="172" y="152" type="curve" smooth="yes"/>
      <point x="121" y="152"/>
      <point x="86" y="113"/>
      <point x="86" y="54" type="curve" smooth="yes"/>
      <point x="86" y="8"/>
      <point x="113" y="-10"/>
    </contour>
    <contour>
      <point x="151" y="562" type="curve" smooth="yes"/>
      <point x="205" y="562"/>
      <point x="237" y="603"/>
      <point x="237" y="660" type="curve" smooth="yes"/>
      <point x="237" y="706"/>
      <point x="209" y="724"/>
      <point x="172" y="724" type="curve" smooth="yes"/>
      <point x="121" y="724"/>
      <point x="86" y="685"/>
      <point x="86" y="626" type="curve" smooth="yes"/>
      <point x="86" y="580"/>
      <point x="113" y="562"/>
    </contour>
  </outline>
</glyph>
<glyph name="eightsuperior" format="2">
  <advance width="400"/>
  <unicode hex="2078"/>
  <outline>
    <contour>
      <point x="236" y="380" type="curve" smooth="yes"/>
      <point x="370" y="380"/>
      <point x="428" y="444"/>
      <point x="428" y="517" type="curve" smooth="yes"/>
      <point x="428" y="573"/>
      <point x="389" y="605"/>
      <point x="325" y="629" type="curve"/>
      <point x="397" y="638"/>
      <point x="447" y="671"/>
      <point x="447" y="730" type="curve" smooth="yes"/>
      <point x="447" y="787"/>
      <point x="396" y="824"/>
      <point x="311" y="824" type="curve" smooth="yes"/>
      <point x="174" y="824"/>
      <point x="138" y="760"/>
      <point x="138" y="700" type="curve" smooth="yes"/>
      <point x="138" y="650"/>
      <point x="162" y="617"/>
      <point x="216" y="592" type="curve"/>
      <point x="134" y="582"/>
      <point x="83" y="552"/>
      <point x="83" y="484" type="curve" smooth="yes"/>
      <point x="83" y="422"/>
      <point x="138" y="380"/>
    </contour>
    <contour>
      <point x="242" y="390" type="curve" smooth="yes"/>
      <point x="197" y="390"/>
      <point x="171" y="418"/>
      <point x="171" y="469" type="curve" smooth="yes"/>
      <point x="171" y="529"/>
      <point x="192" y="567"/>
      <point x="223" y="588" type="curve"/>
      <point x="288" y="562"/>
      <point x="325" y="536"/>
      <point x="325" y="483" type="curve" smooth="yes"/>
      <point x="325" y="422"/>
      <point x="291" y="390"/>
    </contour>
    <contour>
      <point x="318" y="634" type="curve"/>
      <point x="276" y="655"/>
      <point x="242" y="678"/>
      <point x="242" y="732" type="curve" smooth="yes"/>
      <point x="242" y="795"/>
      <point x="274" y="814"/>
      <point x="309" y="814" type="curve" smooth="yes"/>
      <point x="342" y="814"/>
      <point x="364" y="793"/>
      <point x="364" y="741" type="curve" smooth="yes"/>
      <point x="364" y="686"/>
      <point x="341" y="653"/>
    </contour>
  </outline>
</glyph>
<glyph name="reversedSansSerifL" format="2">
  <advance width="665"/>
  <unicode hex="2143"/>
  <outline>
    <contour>
      <point x="-20" y="0" type="line"/>
      <point x="569" y="0" type="line"/>
      <point x="571" y="10" type="line"/>
      <point x="558" y="10" type="line" smooth="yes"/>
      <point x="513" y="10"/>
      <point x="490" y="20"/>
      <point x="490" y="56" type="curve" smooth="yes"/>
      <point x="490" y="65"/>
      <point x="492" y="80"/>
      <point x="495" y="94" type="curve" smooth="yes"/>
      <point x="611" y="644" type="line" smooth="yes"/>
      <point x="622" y="693"/>
      <point x="650" y="704"/>
      <point x="704" y="704" type="curve" smooth="yes"/>
      <point x="717" y="704" type="line"/>
      <point x="719" y="714" type="line"/>
      <point x="366" y="714" type="line"/>
      <point x="363" y="704" type="line"/>
      <point x="385" y="704" type="line" smooth="yes"/>
      <point x="432" y="704"/>
      <point x="456" y="696"/>
      <point x="456" y="661" type="curve" smooth="yes"/>
      <point x="456" y="655"/>
      <point x="455" y="647"/>
      <point x="453" y="639" type="curve" smooth="yes"/>
      <point x="319" y="10" type="line"/>
      <point x="130" y="10" type="line" smooth="yes"/>
      <point x="54" y="10"/>
      <point x="16" y="49"/>
      <point x="16" y="107" type="curve" smooth="yes"/>
      <point x="16" y="113"/>
      <point x="16" y="119"/>
      <point x="17" y="126" type="curve" smooth="yes"/>
      <point x="25" y="186" type="line"/>
      <point x="15" y="186" type="line"/>
    </contour>
  </outline>
</glyph>
<glyph name="Mhook" format="2">
  <advance width="960"/>
  <unicode hex="2C6E"/>
  <anchor x="368" y="-240" name="bottom"/>
  <anchor x="571" y="714" name="top"/>
  <outline>
    <contour>
      <point x="449" y="-240" type="line"/>
      <point x="482" y="-240" type="line" smooth="yes"/>
      <point x="628" y="-240"/>
      <point x="744" y="-175"/>
      <point x="780" y="-3" type="curve" smooth="yes"/>
      <point x="915" y="643" type="line" smooth="yes"/>
      <point x="926" y="696"/>
      <point x="966" y="704"/>
      <point x="1009" y="704" type="curve" smooth="yes"/>
      <point x="1022" y="704" type="line"/>
      <point x="1024" y="714" type="line"/>
      <point x="779" y="714" type="line"/>
      <point x="489" y="165" type="line"/>
      <point x="389" y="714" type="line"/>
      <point x="127" y="714" type="line"/>
      <point x="125" y="704" type="line"/>
      <point x="160" y="704" type="line" smooth="yes"/>
      <point x="208" y="704"/>
      <point x="242" y="699"/>
      <point x="242" y="670" type="curve" smooth="yes"/>
      <point x="242" y="663"/>
      <point x="240" y="654"/>
      <point x="236" y="636" type="curve" smooth="yes"/>
      <point x="116" y="70" type="line" smooth="yes"/>
      <point x="104" y="18"/>
      <point x="61" y="10"/>
      <point x="14" y="10" type="curve" smooth="yes"/>
      <point x="-21" y="10" type="line"/>
      <point x="-23" y="0" type="line"/>
      <point x="229" y="0" type="line"/>
      <point x="231" y="10" type="line"/>
      <point x="222" y="10" type="line" smooth="yes"/>
      <point x="158" y="10"/>
      <point x="124" y="14"/>
      <point x="124" y="49" type="curve" smooth="yes"/>
      <point x="124" y="55"/>
      <point x="125" y="66"/>
      <point x="127" y="75" type="curve" smooth="yes"/>
      <point x="255" y="674" type="line"/>
      <point x="369" y="0" type="line"/>
      <point x="416" y="0" type="line"/>
      <point x="767" y="670" type="line"/>
      <point x="619" y="-32" type="line" smooth="yes"/>
      <point x="586" y="-187"/>
      <point x="536" y="-228"/>
      <point x="465" y="-228" type="curve" smooth="yes"/>
      <point x="452" y="-228" type="line"/>
    </contour>
  </outline>
</glyph>
<glyph name="olowringinside" format="2">
  <advance width="620"/>
  <unicode hex="2C7A"/>
  <anchor x="252" y="0" name="bottom"/>
  <anchor x="366" y="536" name="top"/>
  <outline>
    <contour>
      <point x="256" y="-10" type="curve" smooth="yes"/>
      <point x="476" y="-10"/>
      <point x="577" y="192"/>
      <point x="577" y="336" type="curve" smooth="yes"/>
      <point x="577" y="485"/>
      <point x="483" y="546"/>
      <point x="368" y="546" type="curve" smooth="yes"/>
      <point x="144" y="546"/>
      <point x="40" y="350"/>
      <point x="40" y="200" type="curve" smooth="yes"/>
      <point x="40" y="59"/>
      <point x="127" y="-10"/>
    </contour>
    <contour>
      <point x="268" y="-1" type="curve" smooth="yes"/>
      <point x="224" y="-1"/>
      <point x="194" y="28"/>
      <point x="194" y="83" type="curve" smooth="yes"/>
      <point x="194" y="136"/>
      <point x="230" y="165"/>
      <point x="273" y="165" type="curve" smooth="yes"/>
      <point x="315" y="165"/>
      <point x="348" y="136"/>
      <point x="348" y="83" type="curve" smooth="yes"/>
      <point x="348" y="28"/>
      <point x="310" y="-1"/>
    </contour>
    <contour>
      <point x="358" y="77" type="curve"/>
      <point x="358" y="136"/>
      <point x="330" y="175"/>
      <point x="273" y="175" type="curve" smooth="yes"/>
      <point x="236" y="175"/>
      <point x="203" y="154"/>
      <point x="193" y="126" type="curve"/>
      <point x="193" y="130"/>
      <point x="193" y="134"/>
      <point x="193" y="147" type="curve" smooth="yes"/>
      <point x="193" y="288"/>
      <point x="249" y="536"/>
      <point x="364" y="536" type="curve" smooth="yes"/>
      <point x="411" y="536"/>
      <point x="425" y="509"/>
      <point x="425" y="400" type="curve" smooth="yes"/>
      <point x="425" y="298"/>
      <point x="404" y="162"/>
    </contour>
  </outline>
</glyph>
<glyph name="uniA642" format="2">
  <advance width="698"/>
  <unicode hex="A642"/>
  <outline>
    <contour>
      <point x="113" y="363" type="line"/>
      <point x="599" y="363" type="line"/>
      <point x="602" y="373" type="line"/>
      <point x="116" y="373" type="line"/>
    </contour>
    <component base="uniA640"/>
  </outline>
</glyph>
<glyph name="uniA72F" format="2">
  <advance width="683"/>
  <unicode hex="A72F"/>
  <outline>
    <contour>
      <point x="399" y="-238" type="line"/>
      <point x="502" y="-224"/>
      <point x="566" y="-164"/>
      <point x="566" y="-93" type="curve" smooth="yes"/>
      <point x="566" y="-61"/>
      <point x="548" y="-33"/>
      <point x="502" y="-33" type="curve" smooth="yes"/>
      <point x="463" y="-33"/>
      <point x="438" y="-54"/>
      <point x="438" y="-90" type="curve" smooth="yes"/>
      <point x="438" y="-140"/>
      <point x="491" y="-143"/>
      <point x="491" y="-169" type="curve" smooth="yes"/>
      <point x="491" y="-205"/>
      <point x="443" y="-222"/>
      <point x="401" y="-228" type="curve"/>
    </contour>
    <component base="uniA72D" xOffset="-50"/>
  </outline>
</glyph>
<glyph name="uniA742" format="2">
  <advance width="757"/>
  <unicode hex="A742"/>
  <anchor x="314" y="0" name="bottom"/>
  <anchor x="466" y="714" name="top"/>
  <anchor x="812" y="714" name="topright"/>
  <outline>
    <contour>
      <point x="325" y="128" type="line"/>
      <point x="628" y="319" type="line"/>
      <point x="621" y="328" type="line"/>
      <point x="320" y="137" type="line"/>
    </contour>
    <component base="K"/>
  </outline>
</glyph>
<glyph name="uniA743" format="2">
  <advance width="610"/>
  <unicode hex="A743"/>
  <anchor x="242" y="0" name="bottom"/>
  <anchor x="404" y="760" name="top"/>
  <anchor x="645" y="760" name="topright"/>
  <outline>
    <contour>
      <point x="247" y="104" type="line"/>
      <point x="509" y="269" type="line"/>
      <point x="504" y="277" type="line"/>
      <point x="243" y="113" type="line"/>
    </contour>
    <component base="k"/>
  </outline>
</glyph>
<glyph name="uniA75F" format="2">
  <advance width="533"/>
  <unicode hex="A75F"/>
  <anchor x="230" y="0" name="bottom"/>
  <anchor x="344" y="536" name="top"/>
  <anchor x="617" y="536" name="topright"/>
  <outline>
    <contour>
      <point x="16" y="-50" type="line"/>
      <point x="28" y="-50" type="line"/>
      <point x="386" y="596" type="line"/>
      <point x="374" y="596" type="line"/>
    </contour>
    <component base="v"/>
  </outline>
</glyph>
<glyph name="uniA765" format="2">
  <advance width="629"/>
  <unicode hex="A765"/>
  <anchor x="204" y="-240" name="bottom"/>
  <anchor x="417" y="760" name="top"/>
  <outline>
    <contour>
      <point x="71" y="603" type="line"/>
      <point x="409" y="603" type="line"/>
      <point x="411" y="613" type="line"/>
      <point x="73" y="613" type="line"/>
    </contour>
    <component base="thorn"/>
  </outline>
</glyph>
<glyph name="uniA7A4" format="2">
  <advance width="808"/>
  <unicode hex="A7A4"/>
  <anchor x="332" y="0" name="bottom"/>
  <anchor x="504" y="714" name="top"/>
  <anchor x="858" y="714" name="topright"/>
  <outline>
    <contour>
      <point x="15" y="276" type="line"/>
      <point x="824" y="445" type="line"/>
      <point x="828" y="456" type="line"/>
      <point x="18" y="287" type="line"/>
    </contour>
    <component base="N"/>
  </outline>
</glyph>
<glyph name="uniAB42" format="2">
  <advance width="926"/>
  <unicode hex="AB42"/>
  <anchor x="493" y="536" name="bottom"/>
  <anchor x="390" y="0" name="top"/>
  <outline>
    <contour>
      <point x="440" y="277" type="line"/>
      <point x="795" y="277" type="line"/>
      <point x="795" y="287" type="line"/>
      <point x="440" y="287" type="line"/>
    </contour>
    <component base="oe" xScale="-1" yScale="-1" xOffset="923" yOffset="536"/>
  </outline>
</glyph>
<glyph name="fl" format="2">
  <advance width="670"/>
  <unicode hex="FB02"/>
  <anchor x="-78" y="-240" name="bottom"/>
  <anchor x="-19" y="-240" name="bottom_1"/>
  <anchor x="473" y="-10" name="bottom_2"/>
  <anchor x="286" y="0" name="caret_1"/>
  <anchor x="463" y="770" name="top"/>
  <anchor x="420" y="770" name="top_1"/>
  <anchor x="596" y="770" name="top_2"/>
  <outline>
    <contour>
      <point x="-76" y="-240" type="curve" smooth="yes"/>
      <point x="32" y="-240"/>
      <point x="160" y="-192"/>
      <point x="203" y="9" type="curve" smooth="yes"/>
      <point x="312" y="526" type="line"/>
      <point x="439" y="526" type="line"/>
      <point x="441" y="536" type="line"/>
      <point x="315" y="536" type="line"/>
      <point x="335" y="632" type="line" smooth="yes"/>
      <point x="354" y="725"/>
      <point x="371" y="760"/>
      <point x="429" y="760" type="curve" smooth="yes"/>
      <point x="470" y="760"/>
      <point x="493" y="734"/>
      <point x="504" y="686" type="curve"/>
      <point x="406" y="228" type="line" smooth="yes"/>
      <point x="395" y="175"/>
      <point x="387" y="133"/>
      <point x="387" y="98" type="curve" smooth="yes"/>
      <point x="387" y="29"/>
      <point x="424" y="-10"/>
      <point x="503" y="-10" type="curve" smooth="yes"/>
      <point x="576" y="-10"/>
      <point x="627" y="27"/>
      <point x="659" y="59" type="curve"/>
      <point x="653" y="68" type="line"/>
      <point x="630" y="47"/>
      <point x="600" y="25"/>
      <point x="573" y="25" type="curve" smooth="yes"/>
      <point x="544" y="25"/>
      <point x="534" y="42"/>
      <point x="533" y="76" type="curve"/>
      <point x="533" y="99"/>
      <point x="540" y="142"/>
      <point x="547" y="174" type="curve" smooth="yes"/>
      <point x="674" y="760" type="line"/>
      <point x="656" y="760" type="line"/>
      <point x="550" y="742" type="line"/>
      <point x="524" y="759"/>
      <point x="483" y="770"/>
      <point x="428" y="770" type="curve" smooth="yes"/>
      <point x="273" y="770"/>
      <point x="201" y="703"/>
      <point x="172" y="577" type="curve" smooth="yes"/>
      <point x="163" y="536" type="line"/>
      <point x="71" y="534" type="line"/>
      <point x="69" y="526" type="line"/>
      <point x="160" y="526" type="line"/>
      <point x="40" y="-43" type="line" smooth="yes"/>
      <point x="9" y="-187"/>
      <point x="-22" y="-230"/>
      <point x="-89" y="-230" type="curve" smooth="yes"/>
      <point x="-104" y="-230"/>
      <point x="-124" y="-226"/>
      <point x="-135" y="-223" type="curve"/>
      <point x="-138" y="-232" type="line"/>
      <point x="-125" y="-236"/>
      <point x="-96" y="-240"/>
    </contour>
  </outline>
</glyph>
<glyph name="f_f_l" format="2">
  <advance width="991"/>
  <unicode hex="FB04"/>
  <anchor x="248" y="-240" name="bottom"/>
  <anchor x="-19" y="-240" name="bottom_1"/>
  <anchor x="343" y="-240" name="bottom_2"/>
  <anchor x="810" y="-10" name="bottom_3"/>
  <anchor x="283" y="0" name="caret_1"/>
  <anchor x="629" y="0" name="caret_2"/>
  <anchor x="626" y="770" name="top"/>
  <anchor x="380" y="770" name="top_1"/>
  <anchor x="713" y="770" name="top_2"/>
  <anchor x="923" y="770" name="top_3"/>
  <outline>
    <contour>
      <point x="-78" y="-240" type="curve" smooth="yes"/>
      <point x="30" y="-240"/>
      <point x="159" y="-192"/>
      <point x="201" y="9" type="curve" smooth="yes"/>
      <point x="310" y="526" type="line"/>
      <point x="481" y="526" type="line"/>
      <point x="361" y="-43" type="line" smooth="yes"/>
      <point x="331" y="-187"/>
      <point x="299" y="-230"/>
      <point x="232" y="-230" type="curve" smooth="yes"/>
      <point x="217" y="-230"/>
      <point x="197" y="-226"/>
      <point x="186" y="-223" type="curve"/>
      <point x="183" y="-232" type="line"/>
      <point x="196" y="-236"/>
      <point x="225" y="-240"/>
      <point x="245" y="-240" type="curve" smooth="yes"/>
      <point x="353" y="-240"/>
      <point x="482" y="-192"/>
      <point x="524" y="9" type="curve" smooth="yes"/>
      <point x="633" y="526" type="line"/>
      <point x="760" y="526" type="line"/>
      <point x="762" y="536" type="line"/>
      <point x="636" y="536" type="line"/>
      <point x="656" y="632" type="line" smooth="yes"/>
      <point x="675" y="725"/>
      <point x="692" y="760"/>
      <point x="750" y="760" type="curve" smooth="yes"/>
      <point x="791" y="760"/>
      <point x="814" y="734"/>
      <point x="825" y="686" type="curve"/>
      <point x="727" y="228" type="line" smooth="yes"/>
      <point x="716" y="175"/>
      <point x="708" y="133"/>
      <point x="708" y="98" type="curve" smooth="yes"/>
      <point x="708" y="29"/>
      <point x="745" y="-10"/>
      <point x="824" y="-10" type="curve" smooth="yes"/>
      <point x="897" y="-10"/>
      <point x="948" y="27"/>
      <point x="980" y="59" type="curve"/>
      <point x="974" y="68" type="line"/>
      <point x="951" y="47"/>
      <point x="921" y="25"/>
      <point x="894" y="25" type="curve" smooth="yes"/>
      <point x="865" y="25"/>
      <point x="855" y="42"/>
      <point x="855" y="76" type="curve" smooth="yes"/>
      <point x="855" y="99"/>
      <point x="861" y="142"/>
      <point x="868" y="174" type="curve" smooth="yes"/>
      <point x="995" y="760" type="line"/>
      <point x="977" y="760" type="line"/>
      <point x="871" y="742" type="line"/>
      <point x="845" y="759"/>
      <point x="804" y="770"/>
      <point x="749" y="770" type="curve" smooth="yes"/>
      <point x="594" y="770"/>
      <point x="522" y="703"/>
      <point x="493" y="577" type="curve" smooth="yes"/>
      <point x="484" y="536" type="line"/>
      <point x="313" y="536" type="line"/>
      <point x="333" y="632" type="line" smooth="yes"/>
      <point x="350" y="715"/>
      <point x="369" y="750"/>
      <point x="407" y="750" type="curve" smooth="yes"/>
      <point x="445" y="750"/>
      <point x="448" y="698"/>
      <point x="448" y="603" type="curve"/>
      <point x="523" y="603"/>
      <point x="563" y="629"/>
      <point x="563" y="673" type="curve" smooth="yes"/>
      <point x="563" y="722"/>
      <point x="509" y="760"/>
      <point x="406" y="760" type="curve" smooth="yes"/>
      <point x="271" y="760"/>
      <point x="196" y="694"/>
      <point x="170" y="577" type="curve" smooth="yes"/>
      <point x="161" y="536" type="line"/>
      <point x="67" y="532" type="line"/>
      <point x="66" y="526" type="line"/>
      <point x="158" y="526" type="line"/>
      <point x="38" y="-43" type="line" smooth="yes"/>
      <point x="8" y="-187"/>
      <point x="-24" y="-230"/>
      <point x="-91" y="-230" type="curve" smooth="yes"/>
      <point x="-106" y="-230"/>
      <point x="-126" y="-226"/>
      <point x="-137" y="-223" type="curve"/>
      <point x="-140" y="-232" type="line"/>
      <point x="-127" y="-236"/>
      <point x="-98" y="-240"/>
    </contour>
  </outline>
</glyph>
<glyph name="s_t" format="2">
  <advance width="901"/>
  <unicode hex="FB06"/>
  <anchor x="201" y="0" name="bottom"/>
  <anchor x="768" y="268" name="center"/>
  <anchor x="315" y="536" name="top"/>
  <anchor x="938" y="701" name="topright"/>
  <outline>
    <contour>
      <point x="679" y="-10" type="curve" smooth="yes"/>
      <point x="752" y="-10"/>
      <point x="801" y="11"/>
      <point x="855" y="53" type="curve"/>
      <point x="851" y="62" type="line"/>
      <point x="818" y="36"/>
      <point x="783" y="16"/>
      <point x="744" y="16" type="curve" smooth="yes"/>
      <point x="708" y="16"/>
      <point x="695" y="41"/>
      <point x="695" y="71" type="curve" smooth="yes"/>
      <point x="695" y="101"/>
      <point x="704" y="149"/>
      <point x="710" y="178" type="curve" smooth="yes"/>
      <point x="787" y="526" type="line"/>
      <point x="909" y="526" type="line"/>
      <point x="910" y="536" type="line"/>
      <point x="789" y="536" type="line"/>
      <point x="801" y="593" type="line" smooth="yes"/>
      <point x="805" y="611"/>
      <point x="807" y="628"/>
      <point x="807" y="646" type="curve" smooth="yes"/>
      <point x="807" y="716"/>
      <point x="730" y="770"/>
      <point x="589" y="770" type="curve" smooth="yes"/>
      <point x="414" y="770"/>
      <point x="346" y="687"/>
      <point x="346" y="592" type="curve" smooth="yes"/>
      <point x="346" y="539"/>
      <point x="367" y="487"/>
      <point x="383" y="452" type="curve"/>
      <point x="488" y="452" type="line"/>
      <point x="488" y="505"/>
      <point x="464" y="536"/>
      <point x="464" y="610" type="curve" smooth="yes"/>
      <point x="464" y="710"/>
      <point x="504" y="760"/>
      <point x="576" y="760" type="curve" smooth="yes"/>
      <point x="642" y="760"/>
      <point x="665" y="716"/>
      <point x="665" y="663" type="curve" smooth="yes"/>
      <point x="665" y="629"/>
      <point x="655" y="588"/>
      <point x="631" y="563" type="curve" smooth="yes"/>
      <point x="609" y="540"/>
      <point x="581" y="536"/>
      <point x="554" y="536" type="curve"/>
      <point x="552" y="526" type="line"/>
      <point x="634" y="526" type="line"/>
      <point x="561" y="191" type="line" smooth="yes"/>
      <point x="554" y="161"/>
      <point x="550" y="135"/>
      <point x="550" y="103" type="curve" smooth="yes"/>
      <point x="551" y="31"/>
      <point x="602" y="-10"/>
    </contour>
    <contour>
      <point x="206" y="-10" type="curve" smooth="yes"/>
      <point x="378" y="-10"/>
      <point x="449" y="74"/>
      <point x="449" y="175" type="curve" smooth="yes"/>
      <point x="449" y="250"/>
      <point x="409" y="286"/>
      <point x="315" y="327" type="curve" smooth="yes"/>
      <point x="234" y="362"/>
      <point x="205" y="388"/>
      <point x="205" y="440" type="curve" smooth="yes"/>
      <point x="205" y="494"/>
      <point x="238" y="536"/>
      <point x="294" y="536" type="curve" smooth="yes"/>
      <point x="352" y="536"/>
      <point x="373" y="496"/>
      <point x="373" y="422" type="curve" smooth="yes"/>
      <point x="373" y="408"/>
      <point x="372" y="393"/>
      <point x="371" y="376" type="curve"/>
      <point x="441" y="376"/>
      <point x="488" y="399"/>
      <point x="488" y="452" type="curve" smooth="yes"/>
      <point x="488" y="501"/>
      <point x="444" y="546"/>
      <point x="304" y="546" type="curve" smooth="yes"/>
      <point x="154" y="546"/>
      <point x="78" y="478"/>
      <point x="78" y="381" type="curve" smooth="yes"/>
      <point x="78" y="298"/>
      <point x="129" y="260"/>
      <point x="215" y="224" type="curve" smooth="yes"/>
      <point x="297" y="190"/>
      <point x="327" y="162"/>
      <point x="327" y="103" type="curve" smooth="yes"/>
      <point x="327" y="45"/>
      <point x="295" y="0"/>
      <point x="227" y="0" type="curve" smooth="yes"/>
      <point x="161" y="0"/>
      <point x="122" y="48"/>
      <point x="122" y="149" type="curve" smooth="yes"/>
      <point x="122" y="160"/>
      <point x="123" y="172"/>
      <point x="124" y="185" type="curve"/>
      <point x="61" y="185"/>
      <point x="17" y="162"/>
      <point x="17" y="100" type="curve" smooth="yes"/>
      <point x="17" y="31"/>
      <point x="97" y="-10"/>
    </contour>
  </outline>
</glyph>
<glyph name="ae.sc" format="2">
  <advance width="783"/>
  <anchor x="314" y="0" name="bottom"/>
  <anchor x="594" y="571" name="top"/>
  <outline>
    <contour>
      <point x="-64" y="0" type="line"/>
      <point x="137" y="0" type="line"/>
      <point x="138" y="10" type="line"/>
      <point x="128" y="10" type="line" smooth="yes"/>
      <point x="95" y="10"/>
      <point x="73" y="22"/>
      <point x="73" y="49" type="curve" smooth="yes"/>
      <point x="73" y="72"/>
      <point x="84" y="93"/>
      <point x="105" y="123" type="curve" smooth="yes"/>
      <point x="152" y="192" type="line"/>
      <point x="350" y="192" type="line"/>
      <point x="323" y="72" type="line" smooth="yes"/>
      <point x="311" y="20"/>
      <point x="299" y="10"/>
      <point x="253" y="10" type="curve" smooth="yes"/>
      <point x="236" y="10" type="line"/>
      <point x="236" y="0" type="line"/>
      <point x="707" y="0" type="line"/>
      <point x="734" y="120" type="line"/>
      <point x="726" y="120" type="line"/>
      <point x="719" y="98" type="line" smooth="yes"/>
      <point x="700" y="38"/>
      <point x="664" y="10"/>
      <point x="618" y="10" type="curve" smooth="yes"/>
      <point x="461" y="10" type="line"/>
      <point x="525" y="295" type="line"/>
      <point x="705" y="295" type="line"/>
      <point x="707" y="305" type="line"/>
      <point x="527" y="305" type="line"/>
      <point x="585" y="561" type="line"/>
      <point x="701" y="561" type="line" smooth="yes"/>
      <point x="740" y="561"/>
      <point x="769" y="534"/>
      <point x="769" y="482" type="curve" smooth="yes"/>
      <point x="769" y="470"/>
      <point x="768" y="458"/>
      <point x="767" y="451" type="curve"/>
      <point x="775" y="451" type="line"/>
      <point x="797" y="571" type="line"/>
      <point x="317" y="571" type="line"/>
      <point x="316" y="562" type="line"/>
      <point x="404" y="560" type="line"/>
      <point x="58" y="80" type="line" smooth="yes"/>
      <point x="18" y="25"/>
      <point x="-9" y="10"/>
      <point x="-35" y="10" type="curve" smooth="yes"/>
      <point x="-63" y="10" type="line"/>
    </contour>
    <contour>
      <point x="160" y="203" type="line"/>
      <point x="320" y="425" type="line" smooth="yes"/>
      <point x="369" y="493"/>
      <point x="401" y="538"/>
      <point x="415" y="560" type="curve"/>
      <point x="433" y="560" type="line"/>
      <point x="352" y="203" type="line"/>
    </contour>
  </outline>
</glyph>
<glyph name="aogonek.loclNAV" format="2">
  <advance width="642"/>
  <anchor x="225" y="-240" name="bottom"/>
  <anchor x="370" y="536" name="top"/>
  <anchor x="692" y="536" name="topright"/>
  <outline>
    <contour>
      <point x="244" y="-237" type="curve" smooth="yes"/>
      <point x="285" y="-237"/>
      <point x="327" y="-228"/>
      <point x="352" y="-218" type="curve"/>
      <point x="353" y="-205" type="line"/>
      <point x="334" y="-213"/>
      <point x="316" y="-217"/>
      <point x="298" y="-217" type="curve" smooth="yes"/>
      <point x="264" y="-217"/>
      <point x="234" y="-200"/>
      <point x="234" y="-140" type="curve" smooth="yes"/>
      <point x="234" y="-66"/>
      <point x="266" y="-3"/>
      <point x="308" y="49" type="curve"/>
      <point x="301" y="49" type="line"/>
      <point x="221" y="-9"/>
      <point x="134" y="-72"/>
      <point x="134" y="-155" type="curve" smooth="yes"/>
      <point x="134" y="-209"/>
      <point x="177" y="-237"/>
    </contour>
    <component base="a"/>
  </outline>
</glyph>
<glyph name="bracketleft.sc" format="2">
  <advance width="309"/>
  <outline>
    <contour>
      <point x="-54" y="-125" type="line"/>
      <point x="215" y="-125" type="line"/>
      <point x="217" y="-115" type="line"/>
      <point x="177" y="-115" type="line" smooth="yes"/>
      <point x="141" y="-115"/>
      <point x="116" y="-99"/>
      <point x="116" y="-57" type="curve" smooth="yes"/>
      <point x="116" y="-41"/>
      <point x="119" y="-22"/>
      <point x="125" y="6" type="curve" smooth="yes"/>
      <point x="238" y="516" type="line" smooth="yes"/>
      <point x="252" y="578"/>
      <point x="272" y="597"/>
      <point x="327" y="597" type="curve" smooth="yes"/>
      <point x="369" y="597" type="line"/>
      <point x="371" y="607" type="line"/>
      <point x="107" y="607" type="line"/>
    </contour>
  </outline>
</glyph>
<glyph name="bracketright.sc" format="2">
  <advance width="310"/>
  <outline>
    <contour>
      <point x="-73" y="-125" type="line"/>
      <point x="191" y="-125" type="line"/>
      <point x="352" y="607" type="line"/>
      <point x="83" y="607" type="line"/>
      <point x="81" y="597" type="line"/>
      <point x="121" y="597" type="line" smooth="yes"/>
      <point x="157" y="597"/>
      <point x="182" y="581"/>
      <point x="182" y="539" type="curve" smooth="yes"/>
      <point x="182" y="523"/>
      <point x="179" y="504"/>
      <point x="173" y="476" type="curve" smooth="yes"/>
      <point x="60" y="-34" type="line" smooth="yes"/>
      <point x="46" y="-96"/>
      <point x="26" y="-115"/>
      <point x="-29" y="-115" type="curve" smooth="yes"/>
      <point x="-71" y="-115" type="line"/>
    </contour>
  </outline>
</glyph>
<glyph name="caroncommaaccent" format="2">
  <advance width="500"/>
  <anchor x="136" y="536" name="_topright"/>
  <outline>
    <contour>
      <point x="198" y="600" type="line"/>
      <point x="212" y="600" type="line"/>
      <point x="255" y="634"/>
      <point x="328" y="709"/>
      <point x="360" y="750" type="curve"/>
      <point x="363" y="760" type="line"/>
      <point x="246" y="760" type="line"/>
      <point x="236" y="710"/>
      <point x="216" y="652"/>
      <point x="198" y="611" type="curve"/>
    </contour>
  </outline>
</glyph>
<glyph name="circumflexhookcomb" format="2">
  <outline>
    <contour>
      <point x="-407" y="606" type="line"/>
      <point x="-394" y="606" type="line"/>
      <point x="-332" y="629"/>
      <point x="-258" y="668"/>
      <point x="-218" y="694" type="curve"/>
      <point x="-188" y="668"/>
      <point x="-144" y="635"/>
      <point x="-90" y="606" type="curve"/>
      <point x="-80" y="606" type="line"/>
      <point x="-79" y="613" type="line"/>
      <point x="-103" y="643"/>
      <point x="-142" y="709"/>
      <point x="-160" y="745" type="curve"/>
      <point x="-265" y="745" type="line"/>
      <point x="-301" y="704"/>
      <point x="-358" y="651"/>
      <point x="-406" y="613" type="curve"/>
    </contour>
    <contour>
      <point x="-71" y="698" type="line"/>
      <point x="-64" y="698" type="line"/>
      <point x="-42" y="745" type="line"/>
      <point x="2" y="749"/>
      <point x="37" y="767"/>
      <point x="37" y="807" type="curve" smooth="yes"/>
      <point x="37" y="836"/>
      <point x="12" y="856"/>
      <point x="-42" y="856" type="curve" smooth="yes"/>
      <point x="-94" y="856"/>
      <point x="-117" y="842"/>
      <point x="-117" y="819" type="curve" smooth="yes"/>
      <point x="-117" y="801"/>
      <point x="-105" y="794"/>
      <point x="-86" y="794" type="curve"/>
      <point x="-81" y="825"/>
      <point x="-69" y="846"/>
      <point x="-50" y="846" type="curve" smooth="yes"/>
      <point x="-34" y="846"/>
      <point x="-27" y="834"/>
      <point x="-27" y="812" type="curve" smooth="yes"/>
      <point x="-27" y="767"/>
      <point x="-50" y="748"/>
      <point x="-82" y="744" type="curve"/>
    </contour>
  </outline>
</glyph>
<glyph name="dotacute" format="2">
  <advance width="530"/>
  <anchor x="319" y="536" name="_top"/>
  <anchor x="341" y="805" name="top"/>
  <outline>
    <contour>
      <point x="358" y="638" type="line"/>
      <point x="366" y="638" type="line"/>
      <point x="422" y="677"/>
      <point x="489" y="748"/>
      <point x="510" y="788" type="curve"/>
      <point x="510" y="797" type="line"/>
      <point x="409" y="797" type="line"/>
      <point x="406" y="763"/>
      <point x="383" y="692"/>
      <point x="357" y="648" type="curve"/>
    </contour>
    <contour>
      <point x="253" y="666" type="curve" smooth="yes"/>
      <point x="281" y="666"/>
      <point x="311" y="682"/>
      <point x="311" y="729" type="curve"/>
      <point x="311" y="762"/>
      <point x="289" y="778"/>
      <point x="258" y="778" type="curve" smooth="yes"/>
      <point x="222" y="778"/>
      <point x="200" y="753"/>
      <point x="200" y="715" type="curve" smooth="yes"/>
      <point x="200" y="682"/>
      <point x="221" y="666"/>
    </contour>
  </outline>
</glyph>
<glyph name="f.sc" format="2">
  <advance width="506"/>
  <anchor x="143" y="0" name="bottom"/>
  <anchor x="330" y="571" name="top"/>
  <anchor x="590" y="571" name="topright"/>
  <outline>
    <contour>
      <point x="-39" y="0" type="line"/>
      <point x="276" y="0" type="line"/>
      <point x="279" y="10" type="line"/>
      <point x="258" y="10" type="line" smooth="yes"/>
      <point x="221" y="10"/>
      <point x="201" y="16"/>
      <point x="201" y="43" type="curve" smooth="yes"/>
      <point x="201" y="48"/>
      <point x="204" y="60"/>
      <point x="205" y="66" type="curve" smooth="yes"/>
      <point x="253" y="276" type="line"/>
      <point x="443" y="276" type="line"/>
      <point x="445" y="287" type="line"/>
      <point x="255" y="287" type="line"/>
      <point x="316" y="561" type="line"/>
      <point x="437" y="561" type="line" smooth="yes"/>
      <point x="503" y="561"/>
      <point x="526" y="525"/>
      <point x="526" y="470" type="curve" smooth="yes"/>
      <point x="526" y="463"/>
      <point x="524" y="444"/>
      <point x="521" y="422" type="curve"/>
      <point x="531" y="422" type="line"/>
      <point x="559" y="571" type="line"/>
      <point x="86" y="571" type="line"/>
      <point x="84" y="561" type="line"/>
      <point x="100" y="561" type="line" smooth="yes"/>
      <point x="136" y="561"/>
      <point x="154" y="553"/>
      <point x="154" y="524" type="curve" smooth="yes"/>
      <point x="154" y="517"/>
      <point x="152" y="505"/>
      <point x="150" y="494" type="curve" smooth="yes"/>
      <point x="52" y="58" type="line" smooth="yes"/>
      <point x="43" y="19"/>
      <point x="21" y="10"/>
      <point x="-22" y="10" type="curve" smooth="yes"/>
      <point x="-37" y="10" type="line"/>
    </contour>
  </outline>
</glyph>
<glyph name="f.ss02" format="2">
  <advance width="395"/>
  <anchor x="123" y="0" name="bottom"/>
  <anchor x="399" y="770" name="top"/>
  <anchor x="600" y="770" name="topright"/>
  <outline>
    <contour>
      <point x="41" y="0" type="line"/>
      <point x="193" y="0" type="line"/>
      <point x="304" y="526" type="line"/>
      <point x="431" y="526" type="line"/>
      <point x="433" y="536" type="line"/>
      <point x="307" y="536" type="line"/>
      <point x="327" y="632" type="line" smooth="yes"/>
      <point x="346" y="725"/>
      <point x="363" y="760"/>
      <point x="401" y="760" type="curve" smooth="yes"/>
      <point x="439" y="760"/>
      <point x="442" y="708"/>
      <point x="442" y="613" type="curve"/>
      <point x="517" y="613"/>
      <point x="557" y="639"/>
      <point x="557" y="683" type="curve" smooth="yes"/>
      <point x="557" y="732"/>
      <point x="503" y="770"/>
      <point x="400" y="770" type="curve" smooth="yes"/>
      <point x="265" y="770"/>
      <point x="193" y="703"/>
      <point x="164" y="577" type="curve" smooth="yes"/>
      <point x="155" y="536" type="line"/>
      <point x="61" y="532" type="line"/>
      <point x="60" y="526" type="line"/>
      <point x="152" y="526" type="line"/>
    </contour>
  </outline>
</glyph>
<glyph name="five.lf" format="2">
  <advance width="563"/>
  <outline>
    <contour>
      <point x="206" y="-10" type="curve" smooth="yes"/>
      <point x="398" y="-10"/>
      <point x="510" y="101"/>
      <point x="510" y="247" type="curve" smooth="yes"/>
      <point x="510" y="368"/>
      <point x="420" y="434"/>
      <point x="282" y="434" type="curve" smooth="yes"/>
      <point x="233" y="434"/>
      <point x="173" y="421"/>
      <point x="123" y="372" type="curve"/>
      <point x="192" y="605" type="line"/>
      <point x="504" y="605" type="line" smooth="yes"/>
      <point x="532" y="605"/>
      <point x="538" y="595"/>
      <point x="538" y="580" type="curve" smooth="yes"/>
      <point x="538" y="572"/>
      <point x="536" y="549"/>
      <point x="535" y="532" type="curve"/>
      <point x="545" y="532" type="line"/>
      <point x="574" y="714" type="line"/>
      <point x="214" y="714" type="line"/>
      <point x="108" y="358" type="line"/>
      <point x="117" y="354" type="line"/>
      <point x="165" y="402"/>
      <point x="213" y="418"/>
      <point x="252" y="418" type="curve" smooth="yes"/>
      <point x="327" y="418"/>
      <point x="360" y="369"/>
      <point x="360" y="246" type="curve" smooth="yes"/>
      <point x="360" y="73"/>
      <point x="299" y="0"/>
      <point x="211" y="0" type="curve" smooth="yes"/>
      <point x="125" y="0"/>
      <point x="107" y="80"/>
      <point x="107" y="187" type="curve"/>
      <point x="43" y="187"/>
      <point x="14" y="151"/>
      <point x="14" y="107" type="curve" smooth="yes"/>
      <point x="14" y="43"/>
      <point x="68" y="-10"/>
    </contour>
  </outline>
</glyph>
<glyph name="g.sc" format="2">
  <advance width="665"/>
  <anchor x="290" y="0" name="bottom"/>
  <anchor x="417" y="571" name="top"/>
  <anchor x="724" y="571" name="topright"/>
  <outline>
    <contour>
      <point x="313" y="-10" type="curve" smooth="yes"/>
      <point x="393" y="-10"/>
      <point x="467" y="2"/>
      <point x="529" y="27" type="curve"/>
      <point x="567" y="207" type="line" smooth="yes"/>
      <point x="576" y="249"/>
      <point x="606" y="256"/>
      <point x="641" y="256" type="curve" smooth="yes"/>
      <point x="654" y="256" type="line"/>
      <point x="655" y="266" type="line"/>
      <point x="346" y="266" type="line"/>
      <point x="344" y="256" type="line"/>
      <point x="362" y="256" type="line" smooth="yes"/>
      <point x="396" y="256"/>
      <point x="420" y="252"/>
      <point x="420" y="229" type="curve" smooth="yes"/>
      <point x="420" y="225"/>
      <point x="418" y="214"/>
      <point x="415" y="201" type="curve" smooth="yes"/>
      <point x="373" y="5" type="line"/>
      <point x="360" y="2"/>
      <point x="345" y="1"/>
      <point x="321" y="1" type="curve" smooth="yes"/>
      <point x="245" y="1"/>
      <point x="203" y="49"/>
      <point x="203" y="175" type="curve" smooth="yes"/>
      <point x="203" y="418"/>
      <point x="303" y="570"/>
      <point x="411" y="570" type="curve" smooth="yes"/>
      <point x="488" y="570"/>
      <point x="498" y="519"/>
      <point x="498" y="403" type="curve"/>
      <point x="587" y="403"/>
      <point x="637" y="423"/>
      <point x="637" y="484" type="curve" smooth="yes"/>
      <point x="637" y="540"/>
      <point x="588" y="580"/>
      <point x="417" y="580" type="curve" smooth="yes"/>
      <point x="133" y="580"/>
      <point x="45" y="384"/>
      <point x="45" y="223" type="curve" smooth="yes"/>
      <point x="45" y="73"/>
      <point x="140" y="-10"/>
    </contour>
  </outline>
</glyph>
<glyph name="one.tosf" format="2">
  <advance width="559"/>
  <outline>
    <contour>
      <point x="191" y="0" type="line"/>
      <point x="340" y="0" type="line"/>
      <point x="457" y="546" type="line"/>
      <point x="375" y="546" type="line"/>
      <point x="324" y="502" type="line" smooth="yes"/>
      <point x="257" y="444"/>
      <point x="174" y="416"/>
      <point x="79" y="417" type="curve"/>
      <point x="79" y="364"/>
      <point x="94" y="333"/>
      <point x="128" y="333" type="curve" smooth="yes"/>
      <point x="174" y="333"/>
      <point x="222" y="364"/>
      <point x="290" y="462" type="curve"/>
    </contour>
  </outline>
</glyph>
<glyph name="tbar.sc" format="2">
  <advance width="552"/>
  <anchor x="234" y="0" name="bottom"/>
  <anchor x="362" y="571" name="top"/>
  <anchor x="276" y="286" name="center"/>
  <anchor x="607" y="571" name="topright"/>
  <outline>
    <contour>
      <point x="95" y="281" type="line"/>
      <point x="470" y="281" type="line"/>
      <point x="472" y="291" type="line"/>
      <point x="97" y="291" type="line"/>
    </contour>
    <component base="t.sc"/>
  </outline>
</glyph>
<glyph name="u.sc" format="2">
  <advance width="600"/>
  <anchor x="225" y="0" name="bottom"/>
  <anchor x="397" y="571" name="top"/>
  <anchor x="641" y="571" name="topright"/>
  <outline>
    <contour>
      <point x="265" y="-10" type="curve" smooth="yes"/>
      <point x="409" y="-10"/>
      <point x="467" y="50"/>
      <point x="494" y="174" type="curve" smooth="yes"/>
      <point x="568" y="512" type="line" smooth="yes"/>
      <point x="577" y="555"/>
      <point x="608" y="561"/>
      <point x="643" y="561" type="curve" smooth="yes"/>
      <point x="664" y="561" type="line"/>
      <point x="666" y="571" type="line"/>
      <point x="482" y="571" type="line"/>
      <point x="481" y="561" type="line"/>
      <point x="502" y="561" type="line" smooth="yes"/>
      <point x="535" y="561"/>
      <point x="559" y="557"/>
      <point x="559" y="534" type="curve" smooth="yes"/>
      <point x="559" y="530"/>
      <point x="558" y="518"/>
      <point x="556" y="510" type="curve" smooth="yes"/>
      <point x="483" y="174" type="line" smooth="yes"/>
      <point x="459" y="63"/>
      <point x="399" y="4"/>
      <point x="305" y="4" type="curve" smooth="yes"/>
      <point x="237" y="4"/>
      <point x="204" y="40"/>
      <point x="204" y="100" type="curve" smooth="yes"/>
      <point x="204" y="127"/>
      <point x="210" y="167"/>
      <point x="217" y="199" type="curve" smooth="yes"/>
      <point x="289" y="514" type="line" smooth="yes"/>
      <point x="298" y="555"/>
      <point x="330" y="561"/>
      <point x="365" y="561" type="curve" smooth="yes"/>
      <point x="382" y="561" type="line"/>
      <point x="383" y="571" type="line"/>
      <point x="72" y="571" type="line"/>
      <point x="70" y="561" type="line"/>
      <point x="84" y="561" type="line" smooth="yes"/>
      <point x="117" y="561"/>
      <point x="141" y="557"/>
      <point x="141" y="534" type="curve" smooth="yes"/>
      <point x="141" y="526"/>
      <point x="137" y="510"/>
      <point x="134" y="496" type="curve" smooth="yes"/>
      <point x="76" y="234" type="line" smooth="yes"/>
      <point x="68" y="198"/>
      <point x="63" y="175"/>
      <point x="63" y="140" type="curve" smooth="yes"/>
      <point x="63" y="52"/>
      <point x="124" y="-10"/>
    </contour>
  </outline>
</glyph>
<glyph name="v.sc" format="2">
  <advance width="614"/>
  <anchor x="219" y="0" name="bottom"/>
  <anchor x="341" y="571" name="top"/>
  <anchor x="617" y="571" name="topright"/>
  <outline>
    <contour>
      <point x="191" y="0" type="line"/>
      <point x="288" y="0" type="line"/>
      <point x="571" y="503" type="line" smooth="yes"/>
      <point x="598" y="551"/>
      <point x="617" y="561"/>
      <point x="651" y="561" type="curve" smooth="yes"/>
      <point x="675" y="561" type="line"/>
      <point x="678" y="571" type="line"/>
      <point x="477" y="571" type="line"/>
      <point x="475" y="561" type="line"/>
      <point x="516" y="561" type="line" smooth="yes"/>
      <point x="549" y="561"/>
      <point x="565" y="556"/>
      <point x="565" y="537" type="curve" smooth="yes"/>
      <point x="565" y="528"/>
      <point x="565" y="513"/>
      <point x="552" y="491" type="curve" smooth="yes"/>
      <point x="381" y="188" type="line" smooth="yes"/>
      <point x="360" y="151"/>
      <point x="336" y="110"/>
      <point x="322" y="83" type="curve"/>
      <point x="319" y="112"/>
      <point x="312" y="174"/>
      <point x="308" y="213" type="curve" smooth="yes"/>
      <point x="276" y="502" type="line" smooth="yes"/>
      <point x="275" y="509"/>
      <point x="274" y="521"/>
      <point x="274" y="530" type="curve" smooth="yes"/>
      <point x="274" y="557"/>
      <point x="296" y="561"/>
      <point x="330" y="561" type="curve" smooth="yes"/>
      <point x="357" y="561" type="line"/>
      <point x="358" y="571" type="line"/>
      <point x="64" y="571" type="line"/>
      <point x="62" y="561" type="line"/>
      <point x="72" y="561" type="line" smooth="yes"/>
      <point x="98" y="561"/>
      <point x="111" y="555"/>
      <point x="116" y="523" type="curve" smooth="yes"/>
    </contour>
  </outline>
</glyph>
